<svg xmlns="http://www.w3.org/2000/svg" viewBox="0 0 194.2 218"><style type="text/css"> .st0{fill:#FFDECC;} .st1{fill:#C93838;} .st2{fill:#F6D1AF;} .st3{opacity:0.2;enable-background:new ;} .st4{fill:#343434;} .st5{opacity:0.1;enable-background:new ;} </style><path class="st0" d="M77.7 129.8c-42.9 18.8-55.8 28.8-60.9 33.4C9 170.1 4.6 196 0 218h97.1 97.1c-4.6-22-9-47.8-16.8-54.8 -5.1-4.5-17.5-14.3-60.4-33.1L77.7 129.8z"/><path class="st1" d="M77.7 129.8c-42.9 18.8-55.8 28.8-60.9 33.4C9 170.1 4.6 196 0 218h97.1 97.1c-4.6-22-9-47.8-16.8-54.8 -5.1-4.5-17.5-14.3-60.4-33.1L77.7 129.8z"/><path class="st2" d="M76.2 92.3v31.9 15.7c11.5 13.6 30.2 14 41.7 0v-15.7V92.3C117.9 66.6 76.2 66.6 76.2 92.3z"/><path class="st2" d="M53.6 62.4c3.7-1.2 8.3 3 10.4 9.3s0.8 12.5-2.9 13.7c-3.7 1.2-8.3-3-10.4-9.3C48.6 69.7 49.9 63.6 53.6 62.4z"/><path class="st2" d="M140.4 62.4c-3.7-1.2-8.3 3-10.4 9.3s-0.8 12.5 2.9 13.7c3.7 1.2 8.3-3 10.4-9.3C145.3 69.7 144 63.6 140.4 62.4z"/><path class="st3" d="M76.2 115.4v1.5c0 0 10.6 12.6 20.8 13.1 10.2 0.5 20.9-12.2 20.9-12.2v-2.3"/><path class="st2" d="M97.1 6.9c-64.1 0-39.5 87.8-35.4 94.6 4.6 7.4 25 23.8 35.4 23.8s30.7-16.4 35.4-23.8C136.7 94.7 161.2 6.9 97.1 6.9z"/><path class="st4" d="M125.9 8.9c-21.7-17-55.1-6.9-65.2 7.3C48.1 34 52.5 61 55.5 81.2v-0.1c0 0.2 0.1 0.4 0.1 0.6 0 0.2 0.4 0.6 0.5 0.8s0.9 0 1.2-0.1c0.1 0 0.1-0.2 0.1-0.3 0.1-1.8 0-5.3 0-5.4 -0.2-2.8-0.8-5.5-1.3-8.2 2-12.8 8-15.5 11.2-30.9 0.7-1 1.4-2 2.1-3 0.9-1.1 1.7-2.2 2.8-3.2 0.5-0.3 1.1-0.7 1.6-1.1 11.7-4.3 23.7 0.9 34.7 5.3 4.2 1.7 4.8-5.8 9.5-6.1 2-0.2 6.1 6.6 7.7 6.4 16.5-1.9 9.6 23.1 12.2 34.7 -0.4 2-0.7 4-0.9 6.1 0 0-0.1 3.6 0 5.4 0 0.1 0 0.2 0.1 0.3 0.3 0.1 1 0.3 1.2 0.1 0.1-0.1 0.4-0.6 0.5-0.8 0.2-0.8 0.2-1.4 0.3-2.2 0.1-1 0.3-2.1 0.4-3.2C142.8 63.9 148.9 14.3 125.9 8.9zM93 25.7c-0.4-0.1-0.7-0.2-1.1-0.3 0.5 0.1 1.1 0.3 1.6 0.4C93.4 25.8 93.2 25.7 93 25.7z"/><polygon class="st5" points="93.2 167.7 101 167.7 101 168 93.1 168 "/><path class="st4" d="M109.5 14.9c0 0-18.7-13-35.3-6 -16.7 7-31.3 9.7-35 5 0 0-10.3 21.7 9 33s41.3 2.3 47.7-4.7c6.3-7 16.7-18.3 22.3-16S109.5 14.9 109.5 14.9z"/></svg>