<svg xmlns="http://www.w3.org/2000/svg" viewBox="0 0 72 113"><style type="text/css"> .st0{fill:none;stroke:#373636;stroke-linecap:round;stroke-miterlimit:10;} .st1{fill:none;stroke:#373636;stroke-linecap:round;stroke-miterlimit:10;stroke-dasharray:3.5831,3.5831;} .st2{fill:#393838;} </style><path class="st0" d="M54.2 1c0 0-0.6 0.1-1.8 0.3"/><path class="st1" d="M48.9 1.9C27.8 6.2-44.8 26.3 43.8 90"/><path class="st0" d="M45.3 91.1c0.5 0.3 1 0.7 1.5 1"/><path class="st2" d="M70.6 111.9c0.2 0 0.4 0 0.5-0.2 0.1-0.2 0.1-0.4 0-0.6L61 94.2c-0.3-0.4-0.7-0.7-1.2-0.8 -0.5-0.1-1 0.1-1.3 0.5L53 99.6 70.1 111l-18.7-9.6 -4 4.2c-0.4 0.4-0.5 0.9-0.3 1.4 0.2 0.5 0.6 0.9 1.1 1L70.6 111.9z"/><path class="st2" d="M54.8 95.6c0-0.1-1.8-0.8-3.2-1.4 -0.3-0.1-0.7-0.1-1.1 0.1 -0.3 0.2-0.5 0.6-0.5 0.9l0 5 0 0.2L54.8 95.6z"/></svg>