<svg xmlns="http://www.w3.org/2000/svg" viewBox="0 0 72 113"><style type="text/css"> .st0{fill:none;stroke:#373636;stroke-linecap:round;stroke-miterlimit:10;} .st1{fill:none;stroke:#373636;stroke-linecap:round;stroke-miterlimit:10;stroke-dasharray:3.5831,3.5831;} .st2{fill:#393838;} </style><path class="st0" d="M17.9 1c0 0 0.6 0.1 1.8 0.3"/><path class="st1" d="M23.2 1.9c21.1 4.3 93.7 24.4 5.1 88.1"/><path class="st0" d="M26.8 91.1c-0.5 0.3-1 0.7-1.5 1"/><path class="st2" d="M23.9 107.9c0.5-0.1 0.9-0.5 1.1-1 0.2-0.5 0-1-0.3-1.4l-4-4.2L2 111l17.1-11.3 -5.4-5.7c-0.3-0.4-0.8-0.5-1.3-0.5 -0.5 0.1-0.9 0.3-1.2 0.8L0.9 111.1c-0.1 0.2-0.1 0.4 0 0.6 0.1 0.2 0.3 0.2 0.5 0.2L23.9 107.9z"/><path class="st2" d="M22 100.5l0-0.2 0-5c0-0.4-0.2-0.7-0.5-0.9 -0.3-0.2-0.7-0.3-1.1-0.1 -1.4 0.6-3.2 1.3-3.2 1.4L22 100.5z"/></svg>