<?xml version="1.0" encoding="utf-8"?>
<!-- Generator: Adobe Illustrator 22.0.0, SVG Export Plug-In . SVG Version: 6.00 Build 0)  -->
<svg version="1.1" id="Слой_1" xmlns="http://www.w3.org/2000/svg" xmlns:xlink="http://www.w3.org/1999/xlink" x="0px" y="0px"
	 viewBox="0 0 600 1100" style="enable-background:new 0 0 600 1100;" xml:space="preserve">
<style type="text/css">
	.st0{fill:#E49945;}
	.st1{fill:#F3C54A;}
	.st2{fill:#F0EEEE;}
	.st3{fill:#BBBBBA;}
	.st4{fill:#ADADAD;}
	.st5{fill:#8D8C8C;}
	.st6{opacity:0.5;}
	.st7{fill:#191A1A;}
	.st8{fill:#E4AD98;}
	.st9{fill:#EFC1AC;}
	.st10{fill:#2B2421;}
	.st11{fill:#EDEDED;}
	.st12{fill:#CD4C4E;}
	.st13{fill:#DFDFDF;}
	.st14{fill:#2F3139;}
	.st15{fill:#C45059;}
	.st16{fill:#D35059;}
	.st17{fill:#A7515B;}
	.st18{fill:#F2F1F0;}
	.st19{font-family:'OpenSans-Bold';}
	.st20{font-size:15.3873px;}
	.st21{letter-spacing:0;}
	.st22{font-family:'OpenSans';}
	.st23{font-size:13.7748px;}
	.st24{fill:#FFFFFF;}
	.st25{font-size:12.7297px;}
	.st26{font-size:11.5325px;}
	.st27{fill:#D6D6D6;}
	.st28{fill:#BFBFBF;}
	.st29{fill:#71BEC9;}
	.st30{fill:#393A41;}
	.st31{clip-path:url(#SVGID_2_);}
	.st32{fill:#EFEEEF;}
	.st33{clip-path:url(#SVGID_4_);}
	.st34{fill:#624B3F;}
	.st35{fill:#D4535C;}
	.st36{fill:#F9FAFA;}
	.st37{fill:none;}
	.st38{fill:#D2D1D1;}
	.st39{fill:#E29046;}
	.st40{fill:#3E3938;}
	.st41{fill:#797D82;}
	.st42{fill:#4C7A9F;}
	.st43{fill:#435A7B;}
	.st44{fill:#3F4248;}
	.st45{fill:#F3C76E;}
	.st46{fill:#75BCAF;}
	.st47{fill:#44A9D4;}
	.st48{fill:#EDE1BF;}
	.st49{fill:#556C6D;}
	.st50{fill:#EBAD4D;}
	.st51{fill:#50837D;}
	.st52{fill:#5C5B53;}
	.st53{fill:none;stroke:#8D8C8C;stroke-miterlimit:10;}
	.st54{fill:#4F8D5F;}
	.st55{fill:#54AE7E;}
	.st56{fill:#F6D946;}
	.st57{font-family:'ArialMT';}
	.st58{font-size:6.8382px;}
	.st59{font-size:6.8385px;}
	.st60{font-size:6.8386px;}
	.st61{font-size:6.8379px;}
	.st62{font-size:6.8383px;}
	.st63{font-size:6.8384px;}
	.st64{font-size:16.6378px;}
	.st65{letter-spacing:0;}
	.st66{fill:#5F5F5F;}
</style>
<g>
	<g>
		<g>
			<path class="st0" d="M150.6,257.2c0.2,0,0.5,0,0.7,0v32.9h-5.4l-0.2-4.2c-0.8-4-7.4-10.3-7.6-15.3
				C137.9,263.6,143.4,257.6,150.6,257.2z"/>
			<path class="st1" d="M152,257.2c-0.2,0-0.4,0-0.7,0v32.9h5.4l0.1-4.2c0.8-4,7.4-10.3,7.6-15.3C164.7,263.5,159.1,257.6,152,257.2
				z"/>
		</g>
		<path class="st2" d="M145.7,291.3h11.1c0.3,0,0.6-0.3,0.6-0.6l0,0c0-0.3-0.3-0.6-0.6-0.6h-11.1c-0.3,0-0.6,0.3-0.6,0.6l0,0
			C145.1,291.1,145.4,291.3,145.7,291.3z"/>
		<path class="st3" d="M156.8,291.3c0,0.2,0.1,0.4,0.1,0.6v4.7c0,1.8-1.5,3.2-3.2,3.2H149c-1.8,0-3.2-1.5-3.2-3.2v-4.7
			c0-0.2,0-0.4,0.1-0.6H156.8z"/>
		<path class="st4" d="M153.5,299.8c-0.4,0.4-1.3,0.6-2.2,0.6c-1,0-1.8-0.3-2.2-0.6H153.5z"/>
		<path class="st5" d="M145.7,294.3l10.8,2.9c0.4,0.1,0.7-0.1,0.8-0.5l0,0c0.1-0.4-0.1-0.7-0.5-0.8l-10.8-2.9
			c-0.4-0.1-0.7,0.1-0.8,0.5l0,0C145.1,293.7,145.3,294.2,145.7,294.3z"/>
		<path class="st5" d="M145.7,296.9l10.2,2.7c0.4,0.1,0.7-0.1,0.8-0.5l0,0c0.1-0.4-0.1-0.7-0.5-0.8l-10.2-2.7
			c-0.4-0.1-0.7,0.1-0.8,0.5l0,0C145.1,296.4,145.3,296.8,145.7,296.9z"/>
		<path class="st5" d="M150.5,291.3l6.4,1.7c0.4,0.1,0.6,0.5,0.5,0.8c-0.1,0.4-0.5,0.6-0.8,0.5l-10.8-2.9c-0.1,0-0.2-0.1-0.3-0.2
			L150.5,291.3z"/>
	</g>
	<g class="st6">
		<g>
			<polygon class="st7" points="148.8,290.2 143.2,270.2 145.1,271.1 145.4,270.1 147.1,270.6 147.1,269.4 148.8,270.6 149.6,269.5 
				151.4,270.7 152.5,269.5 154.5,270.8 155.6,269.4 156.8,270.7 158.9,269.3 153.8,290.1 153.3,290 158.1,270.4 156.7,271.3 
				155.6,270.2 154.6,271.6 152.6,270.2 151.4,271.2 149.7,270.2 148.9,271.3 147.5,270.4 147.5,271.2 145.7,270.7 145.3,271.9 
				143.9,271.1 149.3,290 			"/>
		</g>
	</g>
</g>
<g>
	<g>
		<g>
			<path class="st8" d="M89.7,43.2H77.5v16.3c0,1.8,5.5,3.3,12.2,3.3c6.8,0,12.2-1.5,12.2-3.3V43.2H89.7z"/>
			<g>
				<path class="st9" d="M86.7,52.1c1,0.2,2,0.3,3.1,0.3c1.1,0,2.1-0.1,3.1-0.3c4.6-1.4,13.8-15.2,13.8-15.1c1-3.1,1.5-6.5,1.5-10
					c0-14-8.2-25.5-18.4-25.5S71.4,12.9,71.4,27.1c0,3.5,0.5,6.9,1.5,10C72.9,36.9,82.1,50.6,86.7,52.1z"/>
				<g>
					<path class="st9" d="M73,25.4c0.5,2.5,0,4.8-1.2,5c-1.1,0.3-2.4-1.6-2.9-4c-0.5-2.5,0-4.8,1.2-5C71.2,21.1,72.4,22.9,73,25.4z"
						/>
					<path class="st9" d="M106.5,25.4c-0.5,2.5,0,4.8,1.2,5c1.1,0.3,2.4-1.6,2.9-4c0.5-2.5,0-4.8-1.2-5
						C108.3,21.1,107,22.9,106.5,25.4z"/>
				</g>
				<path class="st10" d="M89.7,0C79,0,70.2,9.2,70.2,20.7c0,0.2,0,0.4,0,0.6c0.1,0,1.4,0.3,1.5,3.2c0.1,1.8,0,2.3,0,2.4l1.6,1
					c0,0,0.2-11.2,8.1-11.6h8.4h8.4c7.8,0.3,8.1,11.6,8.1,11.6l1.6-1c0-0.1,0-0.6,0-2.4c0.1-3,1.3-3.2,1.5-3.2c0-0.2,0-0.4,0-0.6
					C109.3,9.2,100.5,0,89.7,0z"/>
				<path class="st10" d="M75,14.6c0,0,16.1,10.6,30.6,5.2c0,0,0.6-7.7-6.9-8.9C91.2,9.8,75,14.6,75,14.6z"/>
			</g>
			<polygon class="st11" points="75.1,52.4 75.1,91.2 104.4,91.2 104.4,52.4 89.7,58.1 			"/>
			<polygon class="st12" points="89.7,59.5 85.4,83.4 89.7,92.1 94.1,83.4 			"/>
			<polygon class="st12" points="89.7,58.1 84.1,60.6 89.7,66.4 94.8,60.6 			"/>
			<polygon class="st13" points="89.7,58.1 75.1,52.4 70.2,55.7 76.4,67.3 			"/>
			<polygon class="st13" points="89.7,58.1 104.4,52.4 109.3,55.7 103.1,66.6 			"/>
			<path class="st9" d="M134.7,144.2c0,5.3-2.5,9.5-5.7,9.5s-5.7-4.2-5.7-9.5c0-5.3,2.5-9.5,5.7-9.5
				C132.2,134.5,134.7,138.9,134.7,144.2z"/>
			<path class="st9" d="M56.2,144.2c0,5.3-2.5,9.5-5.7,9.5s-5.7-4.2-5.7-9.5c0-5.3,2.5-9.5,5.7-9.5
				C53.6,134.5,56.2,138.9,56.2,144.2z"/>
			<path class="st14" d="M134.7,141.6c0,0-1.4-55.2-1.9-68.8c-0.4-12.3-8.1-14.5-9.7-14.9l0,0l-14-2l-19.5,14l-19.5-14l-14,2l0,0
				c-1.5,0.3-9.1,2.5-9.7,14.9c-0.5,13.7-1.9,68.8-1.9,68.8h11.8L58,95.4l3.4,46.1l28.2,0.2l28.2-0.1l3.4-46.3l1.7,46.4h11.8V141.6z
				"/>
		</g>
	</g>
	<g>
		<g>
			<polygon class="st15" points="42,176.9 42,140 19.3,140 29.8,158.5 19.3,176.9 			"/>
			<polygon class="st15" points="160.2,140 137.5,140 137.5,176.9 160.2,176.9 149.7,158.5 			"/>
		</g>
		<rect x="32.7" y="134.9" class="st16" width="114" height="36.9"/>
		<polygon class="st17" points="32.7,171.9 42,176.9 42,171.9 		"/>
		<polygon class="st17" points="146.7,171.9 137.5,176.9 137.5,171.9 		"/>
		<text transform="matrix(1 0 0 1 54.1147 158.6436)" class="st18 st19 st20 st21">S T A R T</text>
	</g>
</g>
<g>
	<g>
		<g>
			<g>
				<path class="st0" d="M239.3,44.9c0.2,0,0.4,0,0.7,0L239,77.8l-5.4-0.2v-4.2c-0.7-4-7-10.5-7.1-15.5
					C226.4,50.7,232.1,45,239.3,44.9z"/>
				<path class="st1" d="M240.7,45c-0.2,0-0.4,0-0.7,0l-1.1,32.9l5.4,0.2l0.3-4.2c1-3.9,7.7-10,8.1-15.1
					C253.2,51.7,247.8,45.5,240.7,45z"/>
			</g>
			<path class="st2" d="M233.3,78.7l11.1,0.4c0.3,0,0.6-0.2,0.6-0.5l0,0c0-0.3-0.2-0.6-0.5-0.6l-11.1-0.4c-0.3,0-0.6,0.2-0.6,0.5
				l0,0C232.7,78.5,232.9,78.7,233.3,78.7z"/>
			<path class="st3" d="M244.3,79.1c0,0.2,0,0.4,0,0.6l-0.1,4.7c-0.1,1.8-1.6,3.2-3.3,3.1l-4.7-0.2c-1.8-0.1-3.2-1.6-3.1-3.3
				l0.1-4.7c0-0.2,0-0.4,0.1-0.6L244.3,79.1z"/>
			<path class="st4" d="M240.8,87.5c-0.4,0.4-1.3,0.6-2.2,0.6c-1,0-1.8-0.3-2.2-0.7L240.8,87.5z"/>
			<path class="st5" d="M233.2,81.7l10.7,3.2c0.4,0.1,0.7-0.1,0.8-0.5l0,0c0.1-0.4-0.1-0.7-0.5-0.8l-10.7-3.2
				c-0.4-0.1-0.7,0.1-0.8,0.5l0,0C232.5,81.2,232.7,81.6,233.2,81.7z"/>
			<path class="st5" d="M233.1,84.3l10.1,3c0.4,0.1,0.7-0.1,0.8-0.5l0,0c0.1-0.4-0.1-0.7-0.5-0.8l-10.1-3c-0.4-0.1-0.7,0.1-0.8,0.5
				l0,0C232.5,83.8,232.7,84.2,233.1,84.3z"/>
			<path class="st5" d="M238.1,78.9l6.3,1.9c0.4,0.1,0.6,0.5,0.5,0.8c-0.1,0.4-0.5,0.6-0.8,0.5L233.4,79c-0.1,0-0.2-0.1-0.3-0.2
				L238.1,78.9z"/>
		</g>
		<g class="st6">
			<g>
				<polygon class="st7" points="236.4,77.8 231.5,57.6 233.3,58.6 233.7,57.5 235.4,58 235.4,57 237.1,58.2 237.9,57.2 239.6,58.3 
					240.8,57.3 242.8,58.7 243.9,57.3 245,58.6 247.2,57.2 241.3,77.9 240.9,77.8 246.4,58.2 244.9,59.2 243.9,58 242.9,59.3 
					240.9,57.8 239.6,58.9 238,57.8 237.2,58.9 235.8,57.9 235.8,58.7 234,58.1 233.6,59.3 232.2,58.6 236.9,77.7 				"/>
			</g>
		</g>
	</g>
	<text transform="matrix(1 0 0 1 200.3643 111.8267)" class="st14 st22 st23">YOU HAVE A </text>
	<text transform="matrix(1 0 0 1 200.3643 128.375)" class="st14 st22 st23">GREAT IDEA!</text>
</g>
<g>
	<path class="st1" d="M511.2,827.3c0,25.6-20.7,46.3-46.3,46.3c-25.6,0-46.3-20.7-46.3-46.3c0-25.6,20.7-46.3,46.3-46.3
		C490.5,781,511.2,801.7,511.2,827.3z"/>
	<text transform="matrix(1 0 0 1 428.6875 830.8232)" class="st24 st19 st25">FINALISING</text>
</g>
<text transform="matrix(1 0 0 1 454.376 189.1558)" class="st14 st22 st26">TELL US ABOUT IT!</text>
<g>
	<g>
		<g>
			<g>
				<g>
					<polygon class="st27" points="477.1,152.3 478.8,137.6 495,132.6 495,132.4 495.4,132.5 495.7,132.4 495.7,132.6 511.8,137.6 
						513.5,152.3 519.6,153.7 519.6,158.6 495.7,158.6 495,158.6 471.1,158.6 471.1,153.7 					"/>
					<polygon class="st28" points="477.8,147.1 512.7,144.6 512.3,140.9 478.4,140.9 					"/>
					<polygon class="st28" points="519.6,155.4 519.6,158.6 471.1,158.6 471.1,157.8 519.6,153.7 					"/>
					<path class="st27" d="M410.6,137.4c0,2.5,2.1,4.7,4.7,4.7h160.4c2.5,0,4.7-2.1,4.7-4.7V24.1c0-2.5-2.1-4.7-4.7-4.7H415.2
						c-2.5,0-4.7,2.1-4.7,4.7v113.3H410.6z"/>
				</g>
				<g>
					<g>
						<path class="st29" d="M578,118.7V23.4c0-1.4-1-2.5-2.2-2.5H415.2c-1.2,0-2.2,1.2-2.2,2.5v95.3H578z"/>
						<path class="st30" d="M415.5,23.3h160.2v0.1v92.8H415.5V23.4C415.4,23.3,415.5,23.3,415.5,23.3 M415.2,18.4
							c-2.5,0-4.7,2.2-4.7,5.1v97.8h170V23.4c0-2.8-2.1-5.1-4.7-5.1H415.2L415.2,18.4z"/>
					</g>
				</g>
			</g>
		</g>
	</g>
	<g>
		<g>
			<defs>
				<circle id="SVGID_1_" cx="456.7" cy="80.9" r="25.7"/>
			</defs>
			<clipPath id="SVGID_2_">
				<use xlink:href="#SVGID_1_"  style="overflow:visible;"/>
			</clipPath>
			<g class="st31">
				<path class="st32" d="M431,80.9c0,14.2,11.6,25.7,25.7,25.7c14.2,0,25.7-11.6,25.7-25.7c0-14.2-11.6-25.7-25.7-25.7
					C442.6,55.3,431,66.7,431,80.9z"/>
				<g>
					<path class="st8" d="M456.8,77.3h3.7v5c0,0.5-1.7,1.1-3.7,1.1s-3.7-0.4-3.7-1.1v-5C453.1,77.3,456.8,77.3,456.8,77.3z"/>
					<g>
						<path class="st9" d="M457.7,80.1c-0.3,0.1-0.6,0.1-1,0.1s-0.6,0-1-0.1c-1.4-0.4-4.2-4.6-4.2-4.6c-0.3-1-0.4-1.9-0.4-3.1
							c0-4.2,2.5-7.7,5.6-7.7c3.1,0,5.6,3.5,5.6,7.7c0,1.1-0.1,2.1-0.4,3.1C461.9,75.4,459.1,79.7,457.7,80.1z"/>
						<g>
							<path class="st9" d="M461.9,71.9c-0.1,0.7,0,1.5,0.3,1.5c0.3,0.1,0.7-0.4,0.8-1.3c0.1-0.7,0-1.5-0.3-1.5
								C462.4,70.6,462,71.2,461.9,71.9z"/>
							<path class="st9" d="M451.7,71.9c0.1,0.7,0,1.5-0.3,1.5c-0.3,0.1-0.7-0.4-0.8-1.3c-0.1-0.7,0-1.5,0.3-1.5
								S451.5,71.2,451.7,71.9z"/>
						</g>
						<path class="st10" d="M456.8,64.3c3.3,0,5.9,2.9,5.9,6.3c0,0.1,0,0.1,0,0.2c0,0-0.4,0.1-0.4,1c0,0.5,0,0.7,0,0.7l-0.5,0.3
							c0,0-0.1-3.4-2.4-3.5h-2.5h-2.5c-2.4,0.1-2.4,3.5-2.4,3.5l-0.5-0.3c0,0,0-0.2,0-0.7c0-0.8-0.4-1-0.4-1c0-0.1,0-0.1,0-0.2
							C450.8,67,453.5,64.3,456.8,64.3z"/>
						<path class="st10" d="M461.2,68.6c0,0-4.9,3.3-9.3,1.6c0,0-0.2-2.3,2.1-2.8C456.4,67.3,461.2,68.6,461.2,68.6z"/>
					</g>
					<polygon class="st11" points="461.2,80.2 461.2,92 452.3,92 452.3,80.2 456.8,81.9 					"/>
					<polygon class="st12" points="456.8,82.3 458.1,89.6 456.8,92.3 455.5,89.6 					"/>
					<polygon class="st12" points="456.8,81.9 458.5,82.6 456.8,84.4 455.2,82.6 					"/>
					<polygon class="st13" points="456.8,81.9 461.2,80.2 462.7,81.2 460.8,84.7 					"/>
					<polygon class="st13" points="456.8,81.9 452.3,80.2 450.8,81.2 452.7,84.5 					"/>
					<path class="st9" d="M443.1,108.1c0,1.6,0.7,2.9,1.7,2.9s1.7-1.3,1.7-2.9c0-1.6-0.7-2.9-1.7-2.9
						C443.8,105.2,443.1,106.5,443.1,108.1z"/>
					<path class="st9" d="M467,108.1c0,1.6,0.7,2.9,1.7,2.9c1,0,1.7-1.3,1.7-2.9c0-1.6-0.7-2.9-1.7-2.9
						C467.8,105.2,467,106.5,467,108.1z"/>
					<path class="st14" d="M443.1,107.4c0,0,0.4-16.8,0.5-21c0.1-3.7,2.4-4.5,3-4.6l0,0l4.2-0.6l5.9,4.2l5.9-4.2l4.2,0.6l0,0
						c0.4,0.1,2.8,0.7,3,4.6c0.1,4.1,0.5,21,0.5,21h-3.6l-0.5-14.1l-1.1,14h-8.6h-8.6L447,93.1l-0.5,14.1h-3.4V107.4z"/>
				</g>
			</g>
		</g>
	</g>
	<g>
		<g>
			<defs>
				
					<ellipse id="SVGID_3_" transform="matrix(0.2011 -0.9796 0.9796 0.2011 365.4066 570.4448)" cx="532.4" cy="61.2" rx="25.7" ry="25.7"/>
			</defs>
			<clipPath id="SVGID_4_">
				<use xlink:href="#SVGID_3_"  style="overflow:visible;"/>
			</clipPath>
			<g class="st33">
				<path class="st32" d="M506.7,61.2c0,14.2,11.6,25.7,25.7,25.7s25.7-11.6,25.7-25.7c0-14.2-11.6-25.7-25.7-25.7
					S506.7,47,506.7,61.2z"/>
				<g>
					<g>
						<path class="st34" d="M526.6,55.9l5.8,0.4l5.8-0.4c0,0-0.6,3.1-0.5,4.9c0.1,1.8-0.3,2.9-0.3,2.9h-5h-5c0,0-0.4-1.1-0.3-2.9
							C527.2,59,526.6,55.9,526.6,55.9z"/>
						<g>
							<path class="st8" d="M532.5,60.1h3v4.5c0,0.5-1.4,1-3,1c-1.6,0-3-0.4-3-1v-4.5H532.5z"/>
							<polygon class="st11" points="536.4,62.7 536.4,73.2 528.4,73.2 528.4,62.7 532.4,64.3 							"/>
							<polygon class="st13" points="532.4,64.3 536.4,62.7 537.7,63.5 536,66.7 							"/>
							<polygon class="st13" points="532.4,64.3 528.4,62.7 527.1,63.5 528.8,66.5 							"/>
							<path class="st9" d="M520.2,87.6c0,1.5,0.7,2.7,1.6,2.7s1.6-1.2,1.6-2.7c0-1.5-0.7-2.7-1.6-2.7
								C520.9,85,520.2,86.1,520.2,87.6z"/>
							<path class="st9" d="M541.5,87.6c0,1.5,0.7,2.7,1.6,2.7s1.6-1.2,1.6-2.7c0-1.5-0.7-2.7-1.6-2.7
								C542.2,85,541.5,86.1,541.5,87.6z"/>
							<path class="st35" d="M520.2,86.9c0,0,0.4-15,0.5-18.7c0.1-3.4,2.2-3.9,2.7-4l0,0l3.8-0.5l5.3,3.8l5.3-3.8l3.8,0.5l0,0
								c0.4,0.1,2.4,0.6,2.7,4c0.1,3.7,0.5,18.7,0.5,18.7h-3.2l-0.4-12.5l-1,12.5h-7.6H525l-1-12.5L523.6,87h-3.4V86.9z"/>
						</g>
						<path class="st9" d="M533.3,62.7c-0.3,0.1-0.5,0.1-0.8,0.1s-0.6,0-0.8-0.1c-1.3-0.4-3.7-4-3.7-4c-0.3-0.8-0.6-2.2-0.6-3.2
							c0-4,2.3-7.3,5.3-7.3c2.9,0,5.3,3.3,5.3,7.3c0,1.1-0.4,2.3-0.7,3.3C537,58.8,534.6,62.3,533.3,62.7z"/>
						<g>
							<path class="st9" d="M537.2,55.1c-0.1,0.7,0,1.4,0.3,1.5c0.3,0.1,0.6-0.4,0.8-1.2c0.1-0.7,0-1.4-0.3-1.5
								C537.7,53.8,537.4,54.3,537.2,55.1z"/>
							<path class="st9" d="M527.6,55.1c0.1,0.7,0,1.4-0.3,1.5s-0.7-0.4-0.8-1.2c-0.1-0.7,0-1.4,0.3-1.5S527.4,54.3,527.6,55.1z"/>
						</g>
						<path class="st34" d="M526.7,53.3c0.3-6.4,5.1-5.9,5.8-5.4c0.5-0.5,5.4-1.1,5.7,5.4c0,0,0.6,0.6,0.1,2.7c0,0,0.3-2.5-0.6-1.7
							c0,0-0.2,0.6-0.2,1.5c0,0-0.2-1.8-0.5-2.3c-0.3-0.5-2.2-1.7-3.4-1.7c-0.7,0-1,0-1.1,0l0,0l0,0l0,0l0,0c-0.1,0-0.3,0-1.1,0
							c-1.3,0-3.2,1.2-3.4,1.7c-0.3,0.5-0.5,2.3-0.5,2.3c0.1-0.8-0.2-1.5-0.2-1.5c-1-0.8-0.6,1.7-0.6,1.7
							C526.1,53.9,526.7,53.3,526.7,53.3z"/>
					</g>
					<path class="st34" d="M527.4,52.9l0.3-0.4c0,0,0,0-0.1,0l0.7-1.2c0,0,4.7-1.7,4.8-1.7c0.1,0,1.2,0.6,2.1,1.3h0.2
						c0,0,0,0-0.1,0.1c0.7,0.4,1.3,0.7,1.3,0.7s-2.1,1.1-4.8,1.5c-0.2,0-0.3,0.1-0.4,0.1l0,0c-0.3,0-0.6,0.1-1.1,0.1
						c-1.1,0.1-1.8,0.4-1.8,0.4c0.2-0.2,0.6-0.3,1.2-0.4c-0.3,0-0.6,0-1.1-0.1c-0.3,0.3-0.6,0.8-0.5,1.4c0,0-0.1-0.7,0.3-1.4
						C528.2,53.1,527.7,53,527.4,52.9z"/>
				</g>
			</g>
		</g>
	</g>
</g>
<g>
	<g>
		<path class="st36" d="M422.9,142.9h-72.6c-2.4,0-4.5-2-4.5-4.5V95c0-2.4,2-4.5,4.5-4.5h72.6c2.4,0,4.5,2,4.5,4.5v43.4
			C427.3,140.9,425.4,142.9,422.9,142.9z"/>
		<path class="st14" d="M425.1,143.8h-76.9c-1.9,0-3.5-1.3-3.5-2.8V92.4c0-1.5,1.6-2.8,3.5-2.8h76.9c1.9,0,3.5,1.3,3.5,2.8v48.7
			C428.6,142.7,427,143.8,425.1,143.8z M348.3,91.5c-0.5,0-1.1,0.3-1.1,0.8v48.7c0,0.4,0.4,0.8,1.1,0.8h76.8c0.5,0,1.1-0.3,1.1-0.8
			V92.4c0-0.4-0.4-0.8-1.1-0.8L348.3,91.5L348.3,91.5z"/>
	</g>
	<g>
		<g>
			<line class="st37" x1="386.7" y1="142.9" x2="373.5" y2="158.1"/>
			<polygon class="st14" points="374.6,158.6 372.6,157.5 385.7,142.4 387.7,143.4 			"/>
		</g>
		<g>
			<line class="st37" x1="386.7" y1="142.9" x2="399.8" y2="158.1"/>
			<polygon class="st14" points="398.9,158.6 385.7,143.4 387.7,142.4 400.8,157.5 			"/>
		</g>
	</g>
	<g>
		<g>
			<rect x="351.4" y="96.3" class="st38" width="70.5" height="0.4"/>
		</g>
		<g>
			<rect x="351.4" y="102" class="st38" width="70.5" height="0.4"/>
		</g>
		<g>
			<rect x="351.4" y="107.9" class="st38" width="70.5" height="0.4"/>
		</g>
		<g>
			<rect x="351.4" y="113.7" class="st38" width="70.5" height="0.4"/>
		</g>
		<g>
			<rect x="351.4" y="119.4" class="st38" width="70.5" height="0.4"/>
		</g>
		<g>
			<rect x="351.4" y="125.3" class="st38" width="70.5" height="0.4"/>
		</g>
		<g>
			<rect x="351.4" y="131" class="st38" width="70.5" height="0.4"/>
		</g>
		<g>
			<rect x="351.4" y="136.8" class="st38" width="70.5" height="0.4"/>
		</g>
	</g>
	<g>
		<polygon class="st39" points="350.4,139.1 349.1,138.4 357.5,128.7 372.4,130.8 383.6,118.7 391.4,122.8 402.9,113 409.6,115.9 
			420.6,103.9 421.8,104.6 410,117.5 403.1,114.4 391.6,124.3 384,120.3 373.1,132.1 358.2,129.9 		"/>
	</g>
</g>
<g>
	<g>
		<polygon class="st8" points="53.9,251.7 53.9,253.9 67,262.3 73,252.3 58.2,238.1 		"/>
		<path class="st40" d="M77.2,215.5c-3.2-0.6-5.9-0.8-8.3-1c-1.8-0.3-3.7-0.2-5.7,0.2c-1.5,0.3-2.9,0.7-4,1.3c-0.1,0-0.1,0-0.1,0.1
			l0,0l0,0l0,0c-7.5,3.5-8.9,11.1-9.5,16.4c-0.7,6,3.9,19.6,4.7,19.2c0.6-0.5,6.8-6,6.8-6l5-7.1l1.8,2.1c0,0,0.4-6.9,0.5-7.7
			c0.1-0.8,4-4.8,5.1-5.3c1.2-0.5,3.1,0.8,3.1,0.8c4,2.2,6,2.2,7,1.9l0,0c2.9-0.3,4.3-9.2,4.3-9.2C86.4,221.4,77.2,215.5,77.2,215.5
			z"/>
		<path class="st9" d="M59.8,238.8L59.8,238.8c0-0.6,0.1-1.3,0.2-1.7c0.7-4,2.5-3.5,2.5-3.5l0,0c0.6,0,1.4,0.4,2.3,1.5
			c0,0,0.6,3.1,0.8,3.4c0.2,0.3,0.4-3.3,0.4-3.3s1.7-1.9,1.9-2.3c0.2-0.4,3.3-5.4,5.6-5.4c2.3,0,8.7,3,8.7,3s0.2,5.1,0,6.3
			c-0.2,1.2,1.4,9.1,1.3,9.8c-0.2,0.6-1.7,1.1-1.7,1.1s-0.1,0.2-0.2,0.4c-0.4,1.1-1.1,3-1.1,3.1c0,0.2-0.6,0.2-0.6,0.2
			c0.1,0.5,0.3,1.1,0,1.3c-0.6,0.3-0.5,2.4-0.6,3.1c-0.2,0.6-2.5,1.4-4.2,1.3l0,0c-0.5-0.1-1.7-0.6-3.1-1.4
			c-2.4-1.3-5.7-3.2-7.2-4.9l-0.1-0.1c-2.4-2.8-2.5-7.5-2.5-7.5C60.4,241.7,59.8,240.2,59.8,238.8L59.8,238.8z"/>
		<polygon class="st12" points="69.1,261.7 72,267 71,268.4 		"/>
		<polygon class="st13" points="52.8,252.1 70.2,261.5 71,268.4 51.9,253.4 		"/>
		<g>
			<path class="st41" d="M44.3,274.8c0,4.6,3.7,8.3,8.3,8.3s8.3-3.7,8.3-8.3c0-4.6-3.7-8.3-8.3-8.3S44.3,270.2,44.3,274.8z"/>
			<g>
				<path class="st42" d="M73.2,307.7l9.1-8.1c1.1-1,1.2-2.5,0.2-3.7l-23.3-26.6c-3.2-3.6-8.7-3.9-12.2-0.8l0,0
					c-3.6,3.2-3.9,8.7-0.8,12.2l23.3,26.6C70.5,308.5,72.2,308.6,73.2,307.7z"/>
				<path class="st42" d="M71,306.6l4.3-11.9c0.4-1.2,1.7-1.8,3-1.4l36.4,16.3l-4.1,11.6l-38.1-11.8C71.1,309.2,70.6,307.8,71,306.6
					z"/>
				<path class="st42" d="M69.5,307.5c3.1,3.5,8.4,3.7,12,0.5c3.6-3.2,4-8.5,1.1-12c-3.1-3.5-8.4-3.7-12-0.5
					C67,298.7,66.6,304,69.5,307.5z"/>
			</g>
			<path class="st8" d="M110.7,320.7c0,0,13.9,3,16.2,2c2.3-1,7.9-3,8-3.7s-3.7-4.9-9-5.4c-11.2-1.1-1.2-2-1.2-2s2-1.3-0.1-1.4
				c-2.1-0.2-10.1,0-10.1,0L110.7,320.7z"/>
		</g>
		<path class="st43" d="M51.9,253.4c0,0-6.4,2.7-11.6,10.5c-7,10.7-9.5,30.1-9.7,41.8c-0.1,9.1,0,28.6,0,28.7H71c0,0,7.4-60.1,0-66
			C63.6,262.5,51.9,253.4,51.9,253.4z"/>
		<path class="st41" d="M44.3,274.8c0,4.6,3.7,8.3,8.3,8.3s8.3-3.7,8.3-8.3c0-4.6-3.7-8.3-8.3-8.3S44.3,270.2,44.3,274.8z"/>
		<path class="st9" d="M62.9,347c1.2,5.4-0.2,10.3-3.1,11c-2.9,0.6-6.3-3.2-7.4-8.6c-1.2-5.4,0.2-10.3,3.1-11
			C58.4,337.8,61.7,341.6,62.9,347z"/>
		<g>
			<path class="st42" d="M39.1,310.3l11.9,2.4c1.4,0.3,2.8-0.6,3.1-2l7.2-34.7c1-4.7-2-9.3-6.7-10.3l0,0c-4.7-1-9.3,2-10.3,6.7
				l-7.2,34.7C36.7,308.6,37.6,310,39.1,310.3z"/>
			<path class="st42" d="M38.5,307.9l12.1-3.6c1.2-0.3,2.4,0.3,2.9,1.5l8.8,38.8l-11.8,3.7L37,310.7
				C36.6,309.5,37.3,308.2,38.5,307.9z"/>
			<path class="st42" d="M37.1,307.2c-1,4.5,2.1,8.9,6.8,9.9s9.2-1.9,10.2-6.4c1-4.5-2.1-8.9-6.8-9.9
				C42.5,299.8,37.9,302.7,37.1,307.2z"/>
		</g>
	</g>
	<g>
		<polygon class="st8" points="186.9,251.7 186.9,253.9 173.8,262.3 167.9,252.3 182.6,238.1 		"/>
		<path class="st10" d="M164.5,228.4c0,0,2-1.4,3.1-0.8c1.2,0.5,5,4.5,5.1,5.3c0.1,0.8,0.5,7.7,0.5,7.7l1.8-2.1l5,7.1
			c0,0,6.2,5.5,6.8,6c0.6,0.5,5.3-13,4.7-19.2c-0.7-6.2-2.5-15.5-13.8-17.8c-11.7-2.4-18.6,8.4-18.6,8.4s-2.3,6-2.5,6.3
			C156.6,229.4,157,232.4,164.5,228.4z"/>
		<path class="st9" d="M181,238.8L181,238.8c0-0.6-0.1-1.3-0.2-1.7c-0.7-4-2.5-3.5-2.5-3.5l0,0c-0.6,0-1.4,0.4-2.3,1.5
			c0,0-0.6,3.1-0.8,3.4c-0.2,0.3-2-0.3-2-0.3s-0.2-4.9-0.4-5.3s-3.3-5.4-5.6-5.4s-8.7,3-8.7,3s-0.2,5.1,0,6.3
			c0.2,1.2-1.4,9.1-1.3,9.8c0.2,0.6,1.7,1.1,1.7,1.1s0.1,0.2,0.2,0.4c0.4,1.1,1.1,3,1.1,3.1c0,0.2,0.6,0.2,0.6,0.2
			c-0.1,0.5-0.3,1.1,0,1.3c0.6,0.3,0.5,2.4,0.6,3.1c0.2,0.6,2.5,1.4,4.2,1.3l0,0c0.5-0.1,1.7-0.6,3.1-1.4c2.4-1.3,5.7-3.2,7.2-4.9
			l0.1-0.1c2.4-2.8,2.5-7.5,2.5-7.5C180.4,241.7,181,240.2,181,238.8L181,238.8z"/>
		<polygon class="st12" points="171.7,261.7 168.9,267 169.8,268.4 		"/>
		<polygon class="st13" points="188,252.1 170.6,261.5 169.8,268.4 188.9,253.4 		"/>
		<path class="st14" d="M188.9,253.4c0,0,6.4,2.7,11.6,10.5c7,10.7,9.5,30.1,9.7,41.8c0.1,9.1,0,28.6,0,28.7h-40.3
			c0,0-7.4-60.1,0-66C177.2,262.5,188.9,253.4,188.9,253.4z"/>
		<path class="st41" d="M196.5,274.8c0,4.6-3.7,8.3-8.3,8.3s-8.3-3.7-8.3-8.3c0-4.6,3.7-8.3,8.3-8.3
			C192.9,266.5,196.5,270.2,196.5,274.8z"/>
		<g>
			<path class="st44" d="M167.7,307.7l-9.1-8.1c-1.1-1-1.2-2.5-0.2-3.7l23.3-26.6c3.2-3.6,8.7-3.9,12.2-0.8l0,0
				c3.6,3.2,3.9,8.7,0.8,12.2l-23.3,26.6C170.3,308.5,168.7,308.6,167.7,307.7z"/>
			<path class="st44" d="M169.9,306.6l-4.3-11.9c-0.4-1.2-1.7-1.8-3-1.4l-36.4,16.3l4.1,11.6l38.1-11.8
				C169.7,309.2,170.3,307.8,169.9,306.6z"/>
			<path class="st44" d="M171.3,307.5c-3.1,3.5-8.4,3.7-12,0.5c-3.6-3.2-4-8.5-1.1-12c3.1-3.5,8.4-3.7,12-0.5
				C173.8,298.7,174.3,304,171.3,307.5z"/>
		</g>
		<path class="st9" d="M130.1,320.7c0,0-13.9,3-16.2,2s-7.9-3-8-3.7c-0.1-0.7,3.7-4.9,9-5.4c11.2-1.1,1.2-2,1.2-2s-2-1.3,0.1-1.4
			c2.1-0.2,10.1,0,10.1,0L130.1,320.7z"/>
	</g>
</g>
<g>
	<g>
		<g>
			<path class="st40" d="M572.5,436.4l-9.3,0.7l-9.3-0.7c0,0,0.8,2.3,0.6,5.2c-0.2,2.9-0.1,3.6-0.1,3.6l8.7,1.4l9.1-1.2
				c0,0-0.1-1-0.3-3.8C571.9,438.6,572.5,436.4,572.5,436.4z"/>
			<g>
				<path class="st8" d="M563.1,443.3h-4.8v7.1c0,0.8,2.1,1.5,4.8,1.5s4.8-0.6,4.8-1.5v-7.1H563.1z"/>
				<polygon class="st11" points="556.8,447.3 556.8,464.2 569.5,464.2 569.5,447.3 563.2,449.7 				"/>
				<polygon class="st13" points="563.2,449.7 556.8,447.3 554.7,448.7 557.4,453.7 				"/>
				<polygon class="st13" points="563.2,449.7 569.5,447.3 571.7,448.7 569,453.5 				"/>
				<path class="st9" d="M582.7,487.1c0,2.3-1.2,4.1-2.4,4.1c-1.4,0-2.4-1.9-2.4-4.1c0-2.3,1.2-4.1,2.4-4.1
					C581.6,483,582.7,484.9,582.7,487.1z"/>
				<path class="st9" d="M548.6,487.1c0,2.3-1.2,4.1-2.4,4.1c-1.4,0-2.4-1.9-2.4-4.1c0-2.3,1.2-4.1,2.4-4.1
					C547.5,483,548.6,484.9,548.6,487.1z"/>
				<path class="st45" d="M582.7,486c0,0-0.6-24-0.8-29.9c-0.2-5.4-3.5-6.4-4.1-6.5l0,0l-6-0.8l-8.5,6.2l-8.5-6.2l-6,0.8l0,0
					c-0.6,0.1-3.9,1.1-4.1,6.5c-0.2,5.9-0.8,29.9-0.8,29.9h5.1l0.7-20l1.5,20l12.2,0.1l12.2-0.1l1.5-20l0.7,20.2h5.1V486z"/>
			</g>
			<path class="st9" d="M561.8,447.3c0.4,0.1,1,0.2,1.4,0.2s1-0.1,1.4-0.2c2.1-0.6,5.9-6.4,5.9-6.4c0.4-1.4,1.1-3.5,1.1-5.1
				c0-6.5-3.8-11.7-8.4-11.7c-4.7,0-8.4,5.2-8.4,11.7c0,1.6,0.7,3.8,1.2,5.2C555.8,441,559.7,446.7,561.8,447.3z"/>
			<g>
				<path class="st9" d="M555.4,435.1c0.2,1.2,0,2.2-0.5,2.3c-0.5,0.1-1.1-0.7-1.3-1.9c-0.2-1.2,0-2.2,0.5-2.3
					C554.7,433.1,555.2,433.9,555.4,435.1z"/>
				<path class="st9" d="M570.9,435.1c-0.2,1.2,0,2.2,0.5,2.3c0.5,0.1,1.1-0.7,1.3-1.9c0.2-1.2,0-2.2-0.5-2.3
					S571.1,433.9,570.9,435.1z"/>
			</g>
		</g>
		<path class="st40" d="M572.4,432.1c-0.5-10.1-8.3-9.5-9.2-8.6c-0.8-0.8-8.6-1.6-9.1,8.6c0,0-1.1,1.1-0.1,4.2c0,0-0.5-4.1,1.1-2.8
			c0,0,0.3,1.1,0.2,2.4c0,0,0.4-2.9,0.8-3.8c0.2-0.4,1.2-1.2,2.2-1.7c0,0,7.6,4.5,11.7,3.8l0,0l0,0c0.3-0.1,0.6-0.1,1-0.3
			c0.2,1,0.3,2,0.3,2c-0.1-1.4,0.2-2.4,0.2-2.4c1.6-1.4,1.1,2.8,1.1,2.8C573.5,433.3,572.4,432.1,572.4,432.1z"/>
	</g>
	<g>
		<g>
			<path class="st34" d="M535,426.3l-13.5,1l-13.5-1c0,0,1.5,7.1,1.3,11.4c-0.2,4.1,0.7,6.6,0.7,6.6h11.5h11.5c0,0,1-2.4,0.7-6.6
				C533.4,433.4,535,426.3,535,426.3z"/>
			<g>
				<path class="st8" d="M521.3,436.3h-6.9v10.3c0,1.2,3.1,2.1,6.9,2.1c3.8,0,6.9-1,6.9-2.1v-10.3H521.3z"/>
				<polygon class="st11" points="512.2,442.1 512.2,466.5 530.7,466.5 530.7,442.1 521.5,445.7 				"/>
				<polygon class="st13" points="521.5,445.7 512.2,442.1 509.2,444.2 513.1,451.4 				"/>
				<polygon class="st13" points="521.5,445.7 530.7,442.1 533.7,444.2 529.9,451 				"/>
				<path class="st9" d="M549.7,499.7c0,3.3-1.6,6-3.6,6c-2,0-3.6-2.7-3.6-6c0-3.3,1.6-6,3.6-6C548.1,493.7,549.7,496.3,549.7,499.7
					z"/>
				<path class="st9" d="M500.4,499.7c0,3.3-1.6,6-3.6,6s-3.6-2.7-3.6-6c0-3.3,1.6-6,3.6-6C498.8,493.7,500.4,496.3,500.4,499.7z"/>
				<path class="st43" d="M549.7,498.1c0,0-0.8-34.6-1.2-43.3c-0.3-7.7-5.1-9.1-6-9.3l0,0l-8.8-1.3l-12.2,8.8l-12.2-8.8l-8.8,1.3
					l0,0c-1,0.2-5.7,1.6-6,9.3c-0.3,8.6-1.2,43.3-1.2,43.3h7.4l1.1-29.1l2.1,29l17.7,0.1l17.7-0.1l2.1-29l1.1,29.1H549.7z"/>
			</g>
			<path class="st9" d="M519.4,442.2c0.6,0.1,1.4,0.2,2,0.2c0.7,0,1.4-0.1,2-0.2c3.1-1,8.6-9.2,8.6-9.2c0.6-2,1.5-5.1,1.5-7.4
				c0-9.3-5.4-16.9-12.2-16.9c-6.7,0-12.2,7.5-12.2,16.9c0,2.3,1,5.5,1.6,7.5C510.9,433.1,516.4,441.3,519.4,442.2z"/>
			<g>
				<path class="st9" d="M510.3,424.5c0.3,1.7,0,3.2-0.7,3.3c-0.7,0.1-1.6-1.1-1.9-2.7c-0.3-1.7,0-3.2,0.7-3.3
					C509.2,421.6,510,422.8,510.3,424.5z"/>
				<path class="st9" d="M532.6,424.5c-0.3,1.7,0,3.2,0.7,3.3c0.7,0.2,1.6-1.1,1.9-2.7c0.3-1.7,0-3.2-0.7-3.3
					C533.8,421.6,532.9,422.8,532.6,424.5z"/>
			</g>
			<path class="st34" d="M534.7,420.3c-0.8-14.6-11.9-13.7-13.4-12.5c-1.2-1.3-12.4-2.3-13.3,12.5c0,0-1.5,1.6-0.1,6
				c0,0-0.8-5.9,1.5-3.9c0,0,0.5,1.5,0.4,3.5c0,0,0.6-4.1,1.3-5.5c0.6-1.3,5-3.9,8-3.9c1.7,0,2.2,0,2.3,0l0,0l0,0l0,0l0,0
				c0.2,0,0.7,0,2.3,0c2.9,0,7.2,2.7,8,3.9c0.6,1.3,1.3,5.5,1.3,5.5c-0.1-1.9,0.4-3.5,0.4-3.5c2.3-2,1.5,3.9,1.5,3.9
				C536.2,421.8,534.7,420.3,534.7,420.3z"/>
		</g>
		<path class="st34" d="M532.9,419.6l-0.6-1.1c0,0,0.1,0,0.1-0.1l-1.8-2.8c0,0-10.7-3.9-11-3.8c-0.1,0-2.7,1.5-4.9,2.9h-0.4
			c0,0,0.1,0.1,0.2,0.2c-1.6,1-3,1.8-3,1.8s5,2.5,11,3.5c0.4,0.1,0.7,0.1,1.1,0.1l0,0c0.7,0.1,1.6,0.1,2.3,0.2c2.5,0.3,4,1,4,1
			c-0.4-0.4-1.6-0.7-2.7-1c0.7,0,1.6-0.1,2.3-0.2c0.8,0.8,1.4,1.8,1.3,3.1c0,0,0.3-1.7-0.7-3.2C531.3,420,532.2,419.8,532.9,419.6z"
			/>
	</g>
	<g>
		<g>
			<g>
				<g>
					<path class="st8" d="M410.7,436.3h-6.9v10.3c0,1.2,3.1,2.1,6.9,2.1c3.8,0,6.9-1,6.9-2.1v-10.3H410.7z"/>
					<polygon class="st11" points="401.7,442.1 401.7,466.5 420.2,466.5 420.2,442.1 410.9,445.7 					"/>
					<polygon class="st13" points="410.9,445.7 401.7,442.1 398.7,444.2 402.6,451.4 					"/>
					<polygon class="st13" points="410.9,445.7 420.2,442.1 423.1,444.2 419.3,451 					"/>
					<path class="st9" d="M439.2,499.7c0,3.3-1.6,6-3.6,6s-3.6-2.7-3.6-6c0-3.3,1.6-6,3.6-6C437.6,493.7,439.2,496.3,439.2,499.7z"
						/>
					<path class="st9" d="M389.8,499.7c0,3.3-1.6,6-3.6,6c-2,0-3.6-2.7-3.6-6c0-3.3,1.6-6,3.6-6
						C388.2,493.7,389.8,496.3,389.8,499.7z"/>
					<path class="st46" d="M439.2,498.1c0,0-0.8-34.6-1.2-43.3c-0.3-7.7-5.1-9.1-6-9.3l0,0l-8.8-1.3l-12.2,8.8l-12.2-8.8l-8.8,1.3
						l0,0c-1,0.2-5.7,1.6-6,9.3c-0.3,8.6-1.2,43.3-1.2,43.3h7.4l1.1-29.1l2.1,29l17.7,0.1l17.7-0.1l2.1-29l1.1,29.1H439.2z"/>
				</g>
				<path class="st9" d="M408.9,442.2c0.6,0.1,1.4,0.2,2,0.2c0.7,0,1.4-0.1,2-0.2c3.1-1,8.6-9.2,8.6-9.2c0.6-2,1.5-5.1,1.5-7.4
					c0-9.3-5.4-16.9-12.2-16.9s-12.2,7.5-12.2,16.9c0,2.3,1,5.5,1.6,7.5C400.3,433.1,405.9,441.3,408.9,442.2z"/>
				<g>
					<path class="st9" d="M399.8,424.5c0.3,1.7,0,3.2-0.7,3.3c-0.7,0.2-1.6-1.1-1.9-2.7c-0.3-1.7,0-3.2,0.7-3.3
						C398.6,421.6,399.5,422.8,399.8,424.5z"/>
					<path class="st9" d="M422.1,424.5c-0.3,1.7,0,3.2,0.7,3.3c0.7,0.2,1.6-1.1,1.9-2.7c0.3-1.7,0-3.2-0.7-3.3
						C423.2,421.6,422.4,422.8,422.1,424.5z"/>
				</g>
				<path class="st40" d="M424.2,420.3c-0.8-14.6-11.9-13.7-13.4-12.5c-1.2-1.3-12.4-2.3-13.3,12.5c0,0-1.5,1.6-0.1,6
					c0,0-0.8-5.9,1.5-3.9c0,0,0.5,1.5,0.4,3.5c0,0,0.6-4.1,1.3-5.5c0.6-1.3,5-3.9,8-3.9c1.7,0,2.2,0,2.3,0l0,0l0,0l0,0l0,0
					c0.2,0,0.7,0,2.3,0c2.9,0,7.2,2.7,8,3.9c0.6,1.3,1.3,5.5,1.3,5.5c-0.1-1.9,0.4-3.5,0.4-3.5c2.3-2,1.5,3.9,1.5,3.9
					C425.7,421.8,424.2,420.3,424.2,420.3z"/>
			</g>
			<path class="st40" d="M422.4,419.6l-0.6-1.1c0,0,0.1,0,0.1-0.1l-1.8-2.8c0,0-10.7-3.9-11-3.8c-0.1,0-2.7,1.5-4.9,2.9h-0.4
				c0,0,0.1,0.1,0.2,0.2c-1.6,1-3,1.8-3,1.8s5,2.5,11,3.5c0.4,0.1,0.7,0.1,1.1,0.1l0,0c0.7,0.1,1.6,0.1,2.3,0.2c2.5,0.3,4,1,4,1
				c-0.4-0.4-1.6-0.7-2.7-1c0.7,0,1.6-0.1,2.3-0.2c0.8,0.8,1.4,1.8,1.3,3.1c0,0,0.3-1.7-0.7-3.2C420.8,420,421.7,419.8,422.4,419.6z
				"/>
		</g>
		<polygon class="st34" points="410.9,445.7 406.6,448.7 407.3,450.4 410.9,453 414.5,450.4 415.3,448.7 		"/>
	</g>
	<g>
		<path class="st8" d="M467.2,421.4H457V435c0,1.6,4.6,2.8,10.2,2.8c5.6,0,10.2-1.3,10.2-2.8v-13.6H467.2z"/>
		<g>
			<path class="st9" d="M464.6,428.7c0.8,0.2,1.7,0.3,2.5,0.3c0.8,0,1.7-0.1,2.5-0.3c3.8-1.2,11.6-12.6,11.6-12.6
				c0.7-2.5,1.3-5.4,1.3-8.3c0-11.7-6.9-21.2-15.4-21.2s-15.4,9.5-15.4,21.2c0,3,0.4,5.7,1.3,8.3
				C453.1,416.1,460.8,427.6,464.6,428.7z"/>
			<g>
				<path class="st9" d="M453.2,406.6c0.4,2.1,0,3.9-1,4.2c-1,0.2-2-1.3-2.4-3.4c-0.4-2.1,0-3.9,1-4.2
					C451.7,403,452.8,404.5,453.2,406.6z"/>
				<path class="st9" d="M481.3,406.6c-0.4,2.1,0,3.9,1,4.2c1,0.2,2-1.3,2.4-3.4c0.4-2.1,0-3.9-1-4.2
					C482.7,403,481.6,404.5,481.3,406.6z"/>
			</g>
			<path class="st10" d="M467.2,385.4c-9,0-16.2,7.7-16.2,17.3c0,0.2,0,0.3,0,0.5c0.1,0,1.2,0.2,1.2,2.7c0,1.5,0,1.9,0,2l1.4,0.7
				c0,0,0.2-9.3,6.7-9.7h7h7c6.6,0.3,6.7,9.7,6.7,9.7l1.4-0.7c0-0.1,0-0.5,0-2c0.1-2.4,1.1-2.7,1.2-2.7c0-0.2,0-0.3,0-0.5
				C483.5,393.1,476.2,385.4,467.2,385.4z"/>
			<path class="st10" d="M454.9,397.6c0,0,13.5,8.9,25.5,4.3c0,0,0.5-6.5-5.7-7.4C468.4,393.5,454.9,397.6,454.9,397.6z"/>
		</g>
		<polygon class="st11" points="455,429.1 455,461.5 479.5,461.5 479.5,429.1 467.2,433.8 		"/>
		<polygon class="st12" points="467.2,435 463.6,454.9 467.2,462.3 470.9,454.9 		"/>
		<polygon class="st12" points="467.2,433.8 462.5,436 467.2,440.7 471.5,436 		"/>
		<polygon class="st13" points="467.2,433.8 455,429.1 450.9,431.9 456.1,441.5 		"/>
		<polygon class="st13" points="467.2,433.8 479.5,429.1 483.5,431.9 478.3,440.9 		"/>
		<path class="st9" d="M504.8,505.8c0,4.5-2.1,8-4.8,8s-4.8-3.6-4.8-8c0-4.5,2.1-8,4.8-8S504.8,501.3,504.8,505.8z"/>
		<path class="st9" d="M439.2,505.8c0,4.5-2.1,8-4.8,8s-4.8-3.6-4.8-8c0-4.5,2.1-8,4.8-8C437,497.7,439.2,501.3,439.2,505.8z"/>
		<path class="st14" d="M504.8,503.5c0,0-1.2-46-1.6-57.5c-0.4-10.3-6.8-12.1-8.1-12.4l0,0l-11.8-1.7l-16.2,11.8l-16.2-11.8
			l-11.8,1.7l0,0c-1.3,0.2-7.6,2.1-8.1,12.4c-0.4,11.5-1.6,57.5-1.6,57.5h9.9l1.4-38.6l2.8,38.5l23.5,0.1l23.5-0.1l2.8-38.6
			l1.4,38.7H504.8z"/>
	</g>
	<g>
		<g>
			<g>
				<g>
					<path class="st8" d="M366.6,443.3h-4.8v7.1c0,0.8,2.1,1.5,4.8,1.5s4.8-0.6,4.8-1.5v-7.1H366.6z"/>
					<polygon class="st11" points="360.3,447.3 360.3,464.2 373.1,464.2 373.1,447.3 366.7,449.7 					"/>
					<polygon class="st13" points="366.7,449.7 360.3,447.3 358.2,448.7 361,453.7 					"/>
					<polygon class="st13" points="366.7,449.7 373.1,447.3 375.2,448.7 372.5,453.5 					"/>
					<path class="st9" d="M386.2,487.1c0,2.3-1.2,4.1-2.4,4.1c-1.4,0-2.4-1.9-2.4-4.1c0-2.3,1.2-4.1,2.4-4.1
						C385.2,483,386.2,484.9,386.2,487.1z"/>
					<path class="st9" d="M352.2,487.1c0,2.3-1.2,4.1-2.4,4.1c-1.4,0-2.4-1.9-2.4-4.1c0-2.3,1.2-4.1,2.4-4.1
						C351,483,352.2,484.9,352.2,487.1z"/>
					<path class="st35" d="M386.2,486c0,0-0.6-24-0.8-29.9c-0.2-5.4-3.5-6.4-4.1-6.5l0,0l-6-0.8l-8.5,6.2l-8.5-6.2l-6,0.8l0,0
						c-0.6,0.1-3.9,1.1-4.1,6.5c-0.2,5.9-0.8,29.9-0.8,29.9h5.1l0.7-20l1.5,20l12.2,0.1l12.2-0.1l1.5-20l0.7,20.2h5.1V486z"/>
				</g>
				<path class="st9" d="M365.3,447.3c0.4,0.1,1,0.2,1.4,0.2c0.5,0,1-0.1,1.4-0.2c2.1-0.6,5.9-6.4,5.9-6.4c0.4-1.4,1.1-3.5,1.1-5.1
					c0-6.5-3.8-11.7-8.4-11.7c-4.7,0-8.4,5.2-8.4,11.7c0,1.6,0.7,3.8,1.2,5.2C359.4,441,363.2,446.7,365.3,447.3z"/>
				<g>
					<path class="st9" d="M359.1,435.1c0.2,1.2,0,2.2-0.5,2.3c-0.5,0.1-1.1-0.7-1.3-1.9c-0.2-1.2,0-2.2,0.5-2.3
						C358.2,433.1,358.8,433.9,359.1,435.1z"/>
					<path class="st9" d="M374.5,435.1c-0.2,1.2,0,2.2,0.5,2.3c0.5,0.1,1.1-0.7,1.3-1.9c0.2-1.2,0-2.2-0.5-2.3
						C375.2,433.1,374.7,433.9,374.5,435.1z"/>
				</g>
			</g>
		</g>
		<path class="st10" d="M375.9,432.1c-0.3-5.8-3-8.1-5.4-8.8l-3.3-1.6c0,0-3.8,0.8-5.4,1.5c-0.4,0.2-1,0.7-1.4,1.5
			c-1.5,1.4-2.7,3.6-2.9,7.4c0,0-1.1,1.1-0.1,4.2c0,0-0.5-4.1,1.1-2.8c0,0,0.3,1.1,0.2,2.4c0,0,0.4-2.9,0.8-3.8
			c0.4-0.7,2.4-2.1,4.2-2.5l8.1,1c1,0.5,1.8,1.2,2,1.6c0.4,1,0.8,3.8,0.8,3.8c-0.1-1.4,0.2-2.4,0.2-2.4c1.6-1.4,1.1,2.8,1.1,2.8
			C377,433.3,375.9,432.1,375.9,432.1z"/>
	</g>
</g>
<path class="st32" d="M465.7,62.8l-1.7-5.3c1.8-1.7,3-4,3-6.5c0-5.5-5.6-10-12.5-10s-12.5,4.5-12.5,10c0,5.5,5.6,10,12.5,10
	c2.4,0,4.8-0.5,6.7-1.6L465.7,62.8z"/>
<g>
	<text transform="matrix(1 0 0 1 365.5566 312.3423)" class="st14 st22 st26">CONTACT US</text>
	<path class="st47" d="M402.5,261c-4.5-4.5-11.8-4.5-16.2,0c-4.5,4.5-4.5,11.8,0,16.2c4.1,4.1,10.6,4.5,15.2,1l5.2,5.2
		c-0.3,1-0.2,1.9,0.4,2.5l10.9,10.9c1,1,2.8,0.8,3.9-0.3c1.2-1.2,1.4-2.9,0.3-3.9l-10.9-10.9c-0.6-0.6-1.6-0.7-2.5-0.4l-5.2-5.2
		C407,271.7,406.7,265.2,402.5,261z M389,274.7c-3.1-3.1-3.1-8,0-10.9c3.1-3.1,8-3.1,10.9,0c3.1,3.1,3.1,8,0,10.9
		C396.8,277.7,391.9,277.7,389,274.7z"/>
</g>
<g>
	<text transform="matrix(1 0 0 1 168.877 466.6602)" class="st14 st22 st26">WE WILL </text>
	<text transform="matrix(1 0 0 1 168.9829 480.4512)" class="st14 st22 st26">TEAM UP</text>
	<g>
		<g>
			<path class="st39" d="M207.9,444.8L207.9,444.8c0-0.1,0-0.2-0.1-0.4c-0.3-1.2-1-3.3-1.3-4.2c0-0.2-0.1-0.3-0.1-0.4
				c0,0-0.5-0.7-0.8-1l-0.2-0.1c-0.7-0.3-3.1-1.3-3.1-1.3c-1.2-0.5-2.3-1-3.6-1.4c-0.2,1-2.3,7-2.7,7.8l-0.2-5.6
				c0.1-0.1,0.1-0.3,0.2-0.4l0.8-1.7c-0.6,0.5-1.5,0.8-2.5,0.8c-1,0-1.9-0.3-2.5-0.8l0.8,1.7c0.1,0.1,0.1,0.3,0.2,0.4l-0.2,5.6
				c-0.3-0.8-2.4-6.9-2.7-7.8c-1.3,0.4-2.4,0.8-3.6,1.4c0,0-2.3,1-3.1,1.3l-0.2,0.1c0,0-0.7,0.5-0.8,1c0,0-0.1,0.3-0.1,0.4
				c-0.3,1-1,3.1-1.3,4.2c0,0.1-0.1,0.2-0.1,0.4c0,0.1,0,0.2,0,0.3c0,1.3,1,2.2,2.2,2.2h22.9c1.3,0,2.2-1,2.2-2.2
				C207.9,445,207.9,444.9,207.9,444.8L207.9,444.8z"/>
			<g>
				<path class="st39" d="M200,425.6c0-0.4,0.1-1.8,0.1-2.1c0-3.2-2.7-5.8-5.8-5.8h-0.2c-3.2,0-5.8,2.7-5.8,5.8
					c0,0.3,0.1,1.8,0.1,2.1c-0.1,0-1.5-0.3-1.3,1.3c0.3,3.3,1.6,2.7,1.6,2.7c0.6,2,1.6,3.3,2.5,4c1.5,1.3,2.9,1.4,3,1.4h0.2
					c0,0,1.5-0.1,2.9-1.4c1-0.8,1.9-2.1,2.5-4.1c0,0,1.3,0.6,1.6-2.7C201.5,425.2,200.1,425.6,200,425.6L200,425.6z"/>
				<path class="st39" d="M180.3,439L180.3,439L180.3,439c0.2-0.4,0.5-0.8,1-1.3c0.1-0.1,0.4-0.4,0.6-0.5l0,0l0,0
					c0.1-0.1,0.3-0.2,0.4-0.2c0.5-0.2,1.6-0.7,2.4-1.1c0,0,0,0-0.1,0c0,0,0,0-0.1,0c-0.6-0.3-2.7-1.2-2.7-1.2
					c-1.1-0.4-2-0.8-3.2-1.2c-0.2,0.8-2,6-2.3,6.8l-0.2-4.9c0.1-0.1,0.1-0.2,0.2-0.4l0.7-1.5c-0.5,0.4-1.4,0.7-2.2,0.7
					c-0.8,0-1.7-0.3-2.2-0.7l0.7,1.5c0.1,0.1,0.1,0.2,0.2,0.4l-0.2,4.9c-0.3-0.7-2.1-6-2.3-6.8c-1.1,0.4-2.1,0.7-3.2,1.2
					c0,0-2,0.8-2.7,1.2c0,0,0,0-0.1,0c-0.1,0-0.1,0-0.1,0.1c-0.3,0.2-0.6,0.5-0.7,0.8l0,0c-0.1,0.1-0.1,0.3-0.1,0.4
					c-0.3,0.8-0.8,2.7-1.2,3.7c0,0.1-0.1,0.2-0.1,0.3c0,0.1,0,0.2,0,0.3c0,1.1,0.8,1.9,1.9,1.9h13.9c0.3-1.2,0.8-2.9,1.2-3.8
					C180.2,439.5,180.3,439.1,180.3,439L180.3,439z"/>
			</g>
			<path class="st39" d="M170.1,427.9c0.5,1.7,1.4,2.9,2.2,3.5c1.3,1.1,2.5,1.2,2.5,1.2h0.2c0,0,1.3-0.1,2.5-1.2
				c0.8-0.7,1.7-1.8,2.2-3.6c0,0,1.2,0.5,1.4-2.3c0.1-1.4-1.1-1.1-1.2-1.1c0-0.3,0.1-1.6,0.1-1.9c0-2.8-2.2-5.1-5.1-5.1h-0.2
				c-2.8,0-5.1,2.2-5.1,5.1c0,0.3,0.1,1.6,0.1,1.9c-0.1,0-1.3-0.3-1.2,1.1C168.9,428.4,170.1,427.9,170.1,427.9L170.1,427.9z"/>
			<path class="st39" d="M225.3,439.6c0-0.2,0-0.3-0.1-0.5l-0.1-0.6c-0.2-1.1-0.8-1.8-1.7-2.3c-0.2-0.1-0.3-0.2-0.5-0.3
				s-3.6-1.3-3.7-1.3c0,0.1,0,0.2,0,0.4c0.4,0.3,1.9,1.5,1.3,3.8c0,0-1-1.2-2-1.4c-1,1.7-2.7,3.8-3.5,4.5c-0.8-0.5-2.5-2.8-3.5-4.5
				c-1.1,0.1-2,1.4-2,1.4c-0.6-2.2,0.7-3.4,1.3-3.8c0-0.1,0-0.3,0-0.4c-0.1,0-3.5,1.2-3.7,1.3c-0.2,0.1-0.3,0.2-0.5,0.3
				c-0.3,0.2-0.6,0.5-0.8,0.7c0.2,0.1,0.4,0.2,0.5,0.2s0.2,0.1,0.4,0.2c0.3,0.2,0.7,0.5,1.1,1.1c0.4,0.5,0.5,0.7,0.5,0.8
				c0.1,0.2,0.2,0.4,0.2,0.6c0.3,1,0.8,2.7,1.2,3.8h13.3c0.7,0,1.5-0.2,2-0.8c0.4-0.4,0.5-1,0.6-1.6c0-0.1,0-0.5,0-0.5L225.3,439.6
				L225.3,439.6z"/>
			<path class="st39" d="M208.7,428.9c0.1,0.3,0.1,0.5,0.1,0.8c0,0.1,0,0.2,0,0.2c-0.1,0.2-0.6,1.1-0.6,1.3c1,1,2.1,1.3,3.4,1.5
				c0.3,0.1,0.7,0.1,1.1,0.2l0.4,0.1l-0.6,1.8c0,0,0,2.7,2.5,4.2l0,0c2.5-1.6,2.5-4.2,2.5-4.2l-0.6-1.8l0.4-0.1
				c0.4,0,0.7-0.1,1.1-0.2c1.2-0.2,2.4-0.5,3.4-1.5c-0.1-0.1-0.6-1-0.6-1.3c0-0.1,0-0.2,0-0.2c0-0.2,0-0.5,0.1-0.8
				c0.1-0.3,0.2-0.5,0.2-0.8c0.4-1,0.6-1.9,0.6-3c0-3.9-3.2-7.2-7-7.2l0,0c-3.9,0.1-7,3.3-7,7.2c0,1.1,0.2,2.1,0.6,3
				C208.5,428.3,208.6,428.5,208.7,428.9L208.7,428.9z"/>
		</g>
	</g>
</g>
<g>
	<text transform="matrix(1 0 0 1 446.1758 702.8145)" class="st14 st22 st26">WORK</text>
	<text transform="matrix(1 0 0 1 433.7637 716.6045)" class="st14 st22 st26">TOGHETER</text>
	<g>
		<g>
			<g>
				<path class="st0" d="M463.7,587.8c-1.1-0.5-2.2-0.8-3.5-0.8c-3.4,0-6.3,2.1-7.4,5.2c0.1,0.5,0.3,1.2,0.5,1.7
					c0.7,1.8,2.2,3.9,4.2,4.2c0.1-0.3,0.2-0.5,0.3-0.8c0.6-1.1,1.7-1.6,2.9-1.4c0.5,0.1,0.3,0.8-0.2,0.8c-1-0.1-2,0.6-2.2,1.6
					c-0.2,1,0,1.8,0.5,2.7c0.2,0.5-0.4,1-0.7,0.4c-0.4-0.7-0.7-1.6-0.7-2.4h-0.1c-2.2-0.3-3.9-2.7-4.8-4.6c-0.3-0.7-0.5-1.5-0.7-2.2
					c-0.7-0.3-1.7-0.5-2.7-0.5c-3.4,0-6.2,2.8-6.2,6.2v0.1c-3.9,0.3-6.9,3.5-6.9,7.5c0,0.4,0,0.7,0.1,1.2c1.9,1.6,4,2.8,6.5,3.1
					c0.8,0.1,1.7,0.1,2.7,0c-1.6-0.8-2.7-2.7-2.5-4.6c-0.7-0.5-1.3-1.5-1.5-2.4c-0.1-0.5,0.6-0.7,0.8-0.2c0.2,0.6,0.4,1.4,1,1.9
					c0.2,0,0.4,0.1,0.5,0.3c0.6,0.3,1.4,0.2,1.9-0.4c0.3-0.4,1,0.2,0.6,0.6c-0.6,0.7-1.6,1-2.5,0.6c0.1,1.8,1.5,3.5,3.3,3.8
					c0,0,0,0,0.1,0c1.7-0.5,3.3-1.5,4.5-3c-0.1-0.6-0.1-1.2-0.2-1.8c0-0.5,0.8-0.5,0.8,0c0.1,1.6,0.6,5,3.1,4.1
					c0.5-0.2,0.7,0.6,0.2,0.8c-1.1,0.3-2.3-0.1-3.1-1c-0.3-0.4-0.5-0.7-0.6-1.2c-2.1,2.3-5.4,3.5-8.6,3.2c-2.5-0.3-5-1.4-7-3
					c-2.3,1.3-3.9,3.7-3.9,6.5c0,1.5,0.4,2.9,1.2,4l0,0c1.2,1.3,2.8,2.1,4.5,2.4c2.5,0.5,5.4,0,6.7-2.3c-0.6-0.6-1.1-1.5-1.6-2.2
					c-0.3-0.4,0.4-0.8,0.7-0.4c0.4,0.6,0.8,1.4,1.3,2c0.2,0,0.5,0.2,0.5,0.5c0.2,0.2,0.4,0.3,0.6,0.5c1,0.6,2.3,0.8,3.3,0
					c0.4-0.3,1,0.2,0.6,0.6c-1,1-2.4,1.1-3.7,0.5c-0.4-0.2-0.8-0.4-1.2-0.7c-0.7,1.3-2,2.1-3.5,2.5c0.6,2.8,3.3,4.6,6.2,4.1
					c0.1-0.5,0.3-1.1,0.5-1.5c0.2-0.5,1-0.3,0.8,0.2c-0.3,1-0.8,2.1-0.5,3.2c0.2,0.8,1.1,1.7,2,1.4c0.5-0.2,0.7,0.6,0.2,0.8
					c-1.1,0.3-2.2-0.2-2.8-1.3c-0.3-0.6-0.4-1.3-0.3-2c-3.2,0.3-6-1.7-6.8-4.8c-1,0.1-2,0.1-3-0.1c-1.9-0.4-3.8-1.4-5.2-2.8
					c-1.3,1.3-2,3.1-2,5c0,2.1,1,4,2.4,5.4c1.8-0.6,3.8-1,5.4,0.4c0.1,0.1,0.1,0.1,0.1,0.2c0.4-0.6,1.1-1.1,1.7-1.4
					c0.5-0.2,1,0.5,0.4,0.7c-1.2,0.5-2,1.6-2.2,3c-0.1,0.5-0.8,0.3-0.8-0.2c0.1-0.5,0.3-1.1,0.5-1.5c-0.1,0-0.3,0-0.4-0.1
					c-1.6-1.3-3.6-0.7-5.3,0c-0.2,0.6-0.3,1.4-0.3,2.1c0,2.9,1.9,5.3,4.6,6c1.8-3.1,5.5-5.4,8.8-3.4l0,0c0.6-0.5,1.5-0.8,2.4-0.6
					c0.5,0.1,0.3,0.8-0.2,0.8c-1.7-0.2-2.9,1.3-2.4,2.9c0.1,0.5-0.6,0.7-0.8,0.2c-0.3-1-0.1-1.9,0.4-2.5c-2.7-1.6-5.7,0.4-7.4,3h0.1
					c-0.2,0.6-0.2,1.3-0.2,2c0,4.1,3.3,7.5,7.3,7.7c0.5-1.1,1.3-2.1,2.3-2.8c-0.2-1.2-0.2-2.3,0-3.4c-0.3-0.4-0.6-0.8-0.7-1.4
					c-0.2-0.5,0.6-0.7,0.8-0.2c0.2,0.8,0.8,1.4,1.7,1.7c0.1-0.1,0.2-0.1,0.3-0.2c0.4-0.3,0.8,0.4,0.4,0.7c-0.4,0.2-0.6,0.4-1.2,0.3
					c-0.2-0.1-0.4-0.2-0.6-0.3c-0.1,0.8-0.1,1.6,0,2.4c0.4-0.2,0.7-0.3,1.2-0.3c0.1,0,0.2,0,0.2,0c0.3-0.4,0.6-0.7,1-1.1
					c0.4-0.3,1.1,0.2,0.6,0.6c-1,0.7-2.1,2.2-1,3.3c0.4,0.3-0.2,1-0.6,0.6c-0.8-0.7-1-1.7-0.5-2.5c-1.5,0.4-2.8,1.5-3.3,3
					c1.9,3,5.2,4.9,8.9,4.9s7.1-1.9,8.9-4.9v-61.5H463.7z M450.6,596.7c-1.5-0.2-3,0.7-3.3,2.2c-0.1,0.5-1,0.3-0.8-0.2
					c0.5-1.9,2.4-3.1,4.3-2.9C451.4,596,451.1,596.7,450.6,596.7z M438.4,612.7c-0.7,1.1-1,2.3-0.4,3.5c0.2,0.5-0.6,0.7-0.8,0.2
					c-0.5-1.4-0.3-3,0.5-4.2C438,611.8,438.7,612.2,438.4,612.7z M456.8,616.4c0.2-0.5,1-0.1,0.7,0.4c-0.8,1.6-0.6,3.5,0.3,5
					c0.3,0.4-0.4,0.8-0.7,0.4C455.9,620.4,455.8,618.2,456.8,616.4z M460.3,641.7c-2.7,1.1-5.6-0.5-6.4-3.3
					c-0.1-0.5,0.6-0.7,0.8-0.2c0.6,2.3,3.1,3.5,5.3,2.7C460.6,640.8,460.8,641.5,460.3,641.7z"/>
				<path class="st1" d="M466.7,648.3c1.9,3,5.2,4.9,8.9,4.9s7-1.9,8.9-4.9c-0.6-1.4-1.8-2.5-3.3-3c0.3,0.8,0.3,1.8-0.5,2.5
					c-0.4,0.3-1.1-0.2-0.6-0.6c1.3-1.1,0-2.5-1-3.3c-0.4-0.3,0.2-1,0.6-0.6c0.3,0.3,0.7,0.6,1,1.1c0.1,0,0.1,0,0.2,0
					c0.4,0.1,0.8,0.2,1.2,0.3c0.1-0.8,0.1-1.6,0-2.4c-0.2,0.1-0.4,0.2-0.6,0.3c-0.5,0.2-0.7,0-1.2-0.3c-0.4-0.3,0-1.1,0.4-0.7
					c0.1,0.1,0.2,0.1,0.3,0.2c0.8-0.2,1.5-0.8,1.7-1.7c0.2-0.5,1-0.3,0.8,0.2c-0.2,0.5-0.4,1-0.7,1.4c0.2,1.2,0.2,2.3,0,3.4
					c1.1,0.6,1.9,1.6,2.3,2.8c4.1-0.2,7.3-3.6,7.3-7.7c0-0.6-0.1-1.4-0.2-2h0.1c-1.6-2.5-4.7-4.5-7.4-3c0.5,0.7,0.6,1.6,0.4,2.5
					c-0.1,0.5-1,0.3-0.8-0.2c0.4-1.6-0.8-3.1-2.4-2.9c-0.5,0.1-0.7-0.7-0.2-0.8c1-0.1,1.8,0.1,2.4,0.6l0,0c3.2-2,7,0.3,8.8,3.4
					c2.7-0.7,4.6-3.2,4.6-6c0-0.7-0.1-1.4-0.3-2.1c-1.7-0.7-3.7-1.3-5.3,0c-0.1,0.1-0.3,0.1-0.4,0.1c0.2,0.4,0.4,1,0.5,1.5
					c0.1,0.5-0.7,0.7-0.8,0.2c-0.2-1.3-1-2.3-2.2-3c-0.5-0.2-0.1-1,0.4-0.7c0.6,0.3,1.3,0.8,1.7,1.4c0-0.1,0.1-0.1,0.1-0.2
					c1.7-1.4,3.6-1.1,5.4-0.4c1.5-1.3,2.4-3.2,2.4-5.4c0-1.9-0.7-3.7-2-5c-1.4,1.4-3.2,2.3-5.2,2.8c-1,0.2-2,0.2-3,0.1
					c-0.7,3.2-3.6,5.1-6.8,4.8c0.1,0.6,0,1.4-0.3,2c-0.5,1-1.7,1.6-2.8,1.3c-0.5-0.2-0.3-1,0.2-0.8c1,0.3,1.8-0.5,2-1.4
					c0.3-1.1-0.2-2.2-0.5-3.2c-0.2-0.5,0.6-0.7,0.8-0.2s0.3,1,0.5,1.5c2.9,0.4,5.4-1.4,6.2-4.1c-1.4-0.4-2.7-1.2-3.5-2.5
					c-0.3,0.3-0.7,0.5-1.2,0.7c-1.3,0.5-2.7,0.4-3.7-0.5c-0.4-0.3,0.2-1,0.6-0.6c1,0.8,2.2,0.6,3.3,0c0.2-0.1,0.4-0.3,0.6-0.5
					c0-0.3,0.2-0.5,0.5-0.5c0.5-0.6,1-1.3,1.3-2c0.3-0.4,1.1,0,0.7,0.4c-0.4,0.7-1,1.6-1.6,2.2c1.3,2.3,4.2,2.9,6.7,2.3
					c1.7-0.4,3.3-1.3,4.5-2.4l0,0c0.7-1.2,1.2-2.5,1.2-4c0-2.8-1.6-5.2-3.9-6.5c-2,1.6-4.3,2.7-7,3c-3.2,0.3-6.5-0.8-8.6-3.2
					c-0.1,0.4-0.3,0.8-0.6,1.2c-0.7,1-2,1.4-3.1,1c-0.5-0.2-0.3-1,0.2-0.8c2.4,0.8,3-2.5,3.1-4.1c0-0.5,0.8-0.5,0.8,0
					c0,0.6-0.1,1.3-0.2,1.8c1.2,1.5,2.7,2.4,4.5,3c0,0,0,0,0.1,0c1.8-0.3,3.3-2,3.3-3.8c-0.8,0.3-1.9,0-2.5-0.6
					c-0.3-0.4,0.2-1.1,0.6-0.6c0.5,0.6,1.3,0.6,1.9,0.4c0.1-0.2,0.3-0.3,0.5-0.3c0.5-0.4,0.8-1.3,1-1.9c0.1-0.5,1-0.3,0.8,0.2
					c-0.2,1-0.7,1.9-1.5,2.4c0.1,1.9-1,3.7-2.5,4.6c0.8,0.1,1.7,0.1,2.7,0c2.4-0.3,4.7-1.5,6.5-3.1c0.1-0.3,0.1-0.7,0.1-1.2
					c0-3.9-3.1-7.2-6.9-7.5v-0.1c0-3.4-2.8-6.2-6.2-6.2c-1,0-1.8,0.2-2.7,0.5c-0.1,0.7-0.4,1.5-0.7,2.2c-0.8,1.9-2.5,4.2-4.8,4.6
					h-0.1c0,0.8-0.3,1.7-0.7,2.4c-0.2,0.5-1,0-0.7-0.4c0.4-0.8,0.7-1.7,0.5-2.7s-1.2-1.8-2.2-1.6c-0.5,0.1-0.7-0.7-0.2-0.8
					c1.2-0.2,2.2,0.4,2.9,1.4c0.2,0.2,0.3,0.5,0.3,0.8c2-0.3,3.5-2.5,4.2-4.2c0.2-0.5,0.4-1.1,0.5-1.7c-1.2-3-4-5.2-7.4-5.2
					c-1.3,0-2.4,0.3-3.5,0.8v61.5H466.7z M479.7,595.9c1.9-0.3,3.8,0.8,4.3,2.9c0.1,0.5-0.6,0.7-0.8,0.2c-0.4-1.5-1.8-2.4-3.3-2.2
					C479.4,596.7,479.2,596,479.7,595.9z M492.8,612.2c0.8,1.3,1.1,2.8,0.5,4.2c-0.2,0.5-1.1,0.3-0.8-0.2c0.5-1.2,0.3-2.4-0.4-3.5
					C491.8,612.2,492.5,611.8,492.8,612.2z M473.3,622.2c-0.3,0.4-1.1,0-0.7-0.4c1.1-1.5,1.2-3.4,0.3-5c-0.2-0.5,0.5-1,0.7-0.4
					C474.7,618.2,474.6,620.4,473.3,622.2z M470.3,640.9c2.2,0.8,4.7-0.3,5.3-2.7c0.1-0.5,1-0.3,0.8,0.2c-0.7,2.8-3.6,4.2-6.4,3.3
					C469.6,641.5,469.8,640.8,470.3,640.9z"/>
			</g>
		</g>
		<g>
			<g>
				<path class="st5" d="M452.7,659.8h25c0.3,0,0.6-0.3,0.6-0.6v-1.4c0-0.3-0.3-0.6-0.6-0.6h-25c-0.3,0-0.6,0.3-0.6,0.6v1.4
					C452.2,659.5,452.4,659.8,452.7,659.8z"/>
				<path class="st3" d="M476.9,659.7c0.1,0.4,0.1,0.8,0.1,1.3v10c0,3.7-3.1,6.8-6.8,6.8h-10c-3.7,0-6.8-3.1-6.8-6.8v-10
					c0-0.4,0-0.8,0.1-1.3H476.9z"/>
				<path class="st4" d="M470,677.8c-0.8,0.8-2.7,1.4-4.8,1.4c-2.1,0-3.9-0.5-4.8-1.4H470z"/>
				<path class="st5" d="M452.6,665.7l24.6,6.5c0.4,0.1,0.7-0.1,0.8-0.5l0.4-1.6c0.1-0.4-0.1-0.7-0.5-0.8l-24.6-6.5
					c-0.4-0.1-0.7,0.1-0.8,0.5l-0.4,1.6C452,665.3,452.2,665.6,452.6,665.7z"/>
				<path class="st5" d="M452.2,671.3l24.1,6.3c0.1,0,0.3,0,0.3-0.2l0.6-2.4c0-0.1,0-0.3-0.2-0.3l-24.1-6.3c-0.1,0-0.3,0-0.3,0.2
					L452,671C452,671.1,452,671.3,452.2,671.3z"/>
				<path class="st5" d="M463.8,659.7l13.5,3.5c0.8,0.2,1.3,1.1,1.1,1.9s-1.1,1.3-1.9,1.1l-23-6c-0.3-0.1-0.5-0.2-0.7-0.4
					L463.8,659.7z"/>
			</g>
		</g>
	</g>
</g>
<g>
	<g>
		
			<rect x="61.6" y="782.7" transform="matrix(0.973 -0.2307 0.2307 0.973 -188.194 45.0805)" class="st48" width="74" height="89.2"/>
		
			<rect x="57.3" y="788.3" transform="matrix(0.973 -0.2307 0.2307 0.973 -179.8818 42.0362)" class="st5" width="65" height="3.8"/>
		
			<rect x="58.9" y="796.7" transform="matrix(0.973 -0.2306 0.2306 0.973 -181.4034 42.5803)" class="st5" width="65" height="1.2"/>
		<rect x="59.8" y="800.4" transform="matrix(0.973 -0.2306 0.2306 0.973 -182.2369 42.88)" class="st5" width="65" height="1.2"/>
		
			<rect x="61" y="806.3" transform="matrix(0.973 -0.2306 0.2306 0.973 -183.8106 41.0405)" class="st5" width="45.4" height="1.2"/>
		<rect x="61.8" y="810" transform="matrix(0.973 -0.2306 0.2306 0.973 -184.6447 41.34)" class="st5" width="45.4" height="1.2"/>
		
			<rect x="62.4" y="811.4" transform="matrix(0.973 -0.2306 0.2306 0.973 -184.6894 43.7628)" class="st5" width="65" height="1.2"/>
		
			<rect x="63.6" y="817.8" transform="matrix(0.973 -0.2306 0.2306 0.973 -186.4693 41.3923)" class="st5" width="40.4" height="1.2"/>
		<rect x="70.8" y="847" transform="matrix(0.973 -0.2306 0.2306 0.973 -192.6788 46.679)" class="st5" width="65" height="1.2"/>
		
			<rect x="75.3" y="865.9" transform="matrix(0.973 -0.2307 0.2307 0.973 -196.9408 48.2497)" class="st5" width="65" height="0.6"/>
		
			<rect x="65.3" y="825" transform="matrix(0.973 -0.2307 0.2307 0.973 -188.1595 41.9848)" class="st5" width="40.2" height="1.2"/>
		
			<rect x="66.2" y="828.7" transform="matrix(0.973 -0.2307 0.2307 0.973 -188.9956 42.2839)" class="st5" width="40.2" height="1.2"/>
		
			<rect x="67" y="832.4" transform="matrix(0.973 -0.2306 0.2306 0.973 -189.7396 42.5398)" class="st5" width="40.2" height="1.2"/>
		<polygon class="st5" points="107.7,832.5 68.6,841.8 68.3,840.6 107.5,831.4 		"/>
		
			<rect x="68.4" y="836.8" transform="matrix(0.973 -0.2307 0.2307 0.973 -190.4601 45.8809)" class="st5" width="65" height="1.2"/>
		
			<rect x="69.3" y="840.4" transform="matrix(0.973 -0.2307 0.2307 0.973 -191.2712 46.1722)" class="st5" width="65" height="1.2"/>
		<g>
			<g>
				<path class="st47" d="M84.5,862.4c-2.3,0.5-3.8,2.9-3.3,5.3c0.5,2.3,2.9,3.8,5.3,3.3c2.3-0.5,3.8-2.9,3.3-5.3
					C89.1,863.2,86.8,861.8,84.5,862.4z M86.3,870.2c-1.9,0.4-3.9-0.7-4.3-2.8c-0.4-1.9,0.7-3.9,2.8-4.3c1.9-0.4,3.9,0.7,4.3,2.8
					C89.4,867.8,88.3,869.7,86.3,870.2z"/>
				<path class="st47" d="M88.2,866c0.3,1.5-0.5,3-2.1,3.4c-1.5,0.3-3-0.5-3.4-2.1c-0.3-1.5,0.5-3,2.1-3.4
					C86.3,863.5,87.8,864.5,88.2,866z"/>
				<path class="st47" d="M92.7,866.2l-1.2-0.3c0-0.1,0-0.2,0-0.3l1-0.6l-1.2-0.1c0-0.1-0.1-0.2-0.1-0.3l0.8-0.8l-1.2,0.1
					c0-0.1-0.1-0.2-0.1-0.2l0.7-1l-1.2,0.3c-0.1-0.1-0.1-0.1-0.2-0.2l0.5-1.1l-1.1,0.4c-0.1-0.1-0.1-0.1-0.2-0.2l0.3-1.2l-1,0.6
					c-0.1,0-0.2-0.1-0.2-0.1l0.1-1.2l-0.8,0.8c-0.1,0-0.2-0.1-0.3-0.1l-0.1-1.2l-0.7,1c-0.1,0-0.2,0-0.3-0.1l-0.3-1.2l-0.5,1.1
					c-0.1,0-0.2,0-0.3,0l-0.4-1.1l-0.3,1.2c-0.1,0-0.2,0-0.3,0l-0.6-1l-0.1,1.2c-0.1,0-0.2,0.1-0.3,0.1l-0.5-0.8l0.1,1.2
					c-0.1,0-0.2,0.1-0.2,0.1l-1-0.7l0.3,1.2c-0.1,0.1-0.1,0.1-0.2,0.2l-1.1-0.5l0.4,1.1c-0.1,0.1-0.1,0.1-0.2,0.2l-1.2-0.3l0.6,1
					c0,0.1-0.1,0.2-0.1,0.2l-1.2-0.1l0.8,0.8c0,0.1-0.1,0.2-0.1,0.3l-1.2,0.1l1,0.7c0,0.1,0,0.2-0.1,0.3l-1.2,0.2l1.1,0.5
					c0,0.1,0,0.2,0,0.3l-1.1,0.4l1.2,0.3c0,0.1,0,0.2,0,0.3l-1,0.6l1.2,0.1c0,0.1,0.1,0.2,0.1,0.3l-0.8,0.8l1.2-0.1
					c0,0.1,0.1,0.2,0.1,0.2l-0.7,1l1.2-0.3c0.1,0.1,0.1,0.1,0.2,0.2l-0.5,1.1l1.1-0.4c0.1,0.1,0.1,0.1,0.2,0.2l-0.3,1.2l1-0.6
					c0.1,0.1,0.2,0.1,0.2,0.1l-0.1,1.2l0.8-0.8c0.1,0,0.2,0.1,0.3,0.1l0.1,1.2l0.7-1c0.1,0,0.2,0,0.3,0.1l0.2,1.2l0.5-1.1
					c0.1,0,0.2,0,0.3,0L86,874l0.3-1.2c0.1,0,0.2,0,0.3,0l0.6,1l0.1-1.2c0.1,0,0.2-0.1,0.3-0.1l0.8,0.8l-0.1-1.2
					c0.1,0,0.2-0.1,0.2-0.1l1,0.7l-0.3-1.2c0.1-0.1,0.1-0.1,0.2-0.2l1.1,0.5l-0.4-1.1c0.1-0.1,0.1-0.1,0.2-0.2l1.2,0.3l-0.6-1
					c0.1-0.1,0.1-0.2,0.1-0.2l1.2,0.1l-0.8-0.8c0-0.1,0.1-0.2,0.1-0.3l1.2-0.1l-1-0.7c0-0.1,0-0.2,0.1-0.3l1.2-0.3l-1.1-0.5
					c0-0.1,0-0.2,0-0.3L92.7,866.2z M86.7,871.7c-2.9,0.6-5.6-1.1-6.4-3.9c-0.6-2.9,1.1-5.6,3.9-6.4c2.9-0.6,5.6,1.1,6.4,3.9
					C91.2,868.2,89.4,871.1,86.7,871.7z"/>
				<path class="st47" d="M84.5,861.8c0,0.1,0,0.2-0.1,0.2s-0.2,0-0.2-0.1c0-0.1,0-0.2,0.1-0.2C84.3,861.7,84.5,861.7,84.5,861.8z"
					/>
				<path class="st47" d="M83.7,862.2c0,0.1,0,0.2-0.1,0.2s-0.2,0-0.2-0.1c0-0.1,0-0.2,0.1-0.2C83.5,862,83.6,862.1,83.7,862.2z"/>
				<path class="st47" d="M82.9,862.5c0,0.1,0,0.2,0,0.2c-0.1,0-0.2,0-0.2,0c0-0.1,0-0.2,0-0.2C82.8,862.4,82.9,862.4,82.9,862.5z"
					/>
				<path class="st47" d="M82.2,863c0.1,0.1,0.1,0.2,0,0.2c-0.1,0.1-0.2,0.1-0.2,0c-0.1-0.1-0.1-0.2,0-0.2
					C82.1,862.9,82.1,862.9,82.2,863z"/>
				<path class="st47" d="M81.6,863.7c0.1,0,0.1,0.1,0,0.2c0,0.1-0.1,0.1-0.2,0c-0.1,0-0.1-0.1,0-0.2
					C81.5,863.5,81.6,863.5,81.6,863.7z"/>
				<path class="st47" d="M81.2,864.3c0.1,0,0.1,0.1,0.1,0.2c0,0.1-0.1,0.1-0.2,0.1c-0.1,0-0.1-0.1-0.1-0.2
					C81.1,864.3,81.1,864.3,81.2,864.3z"/>
				<path class="st47" d="M80.8,865.1c0.1,0,0.1,0.1,0.1,0.2c0,0.1-0.1,0.1-0.2,0.1c-0.1,0-0.1-0.1-0.1-0.2
					C80.6,865.1,80.7,865,80.8,865.1z"/>
				<path class="st47" d="M80.6,865.9c0.1,0,0.1,0.1,0.1,0.2s-0.1,0.1-0.2,0.1c-0.1,0-0.1-0.1-0.1-0.2
					C80.5,866,80.5,865.9,80.6,865.9z"/>
				<path class="st47" d="M80.6,866.7c0.1,0,0.1,0.1,0.2,0.1c0,0.1-0.1,0.1-0.1,0.2c-0.1,0-0.1-0.1-0.2-0.1
					C80.4,866.8,80.5,866.7,80.6,866.7z"/>
				<path class="st47" d="M80.6,867.6c0.1,0,0.2,0,0.2,0.1c0,0.1,0,0.2-0.1,0.2s-0.2,0-0.2-0.1C80.5,867.7,80.6,867.6,80.6,867.6z"
					/>
				<path class="st47" d="M80.9,868.4c0.1,0,0.2,0,0.2,0.1s0,0.2-0.1,0.2s-0.2,0-0.2-0.1C80.8,868.5,80.8,868.4,80.9,868.4z"/>
				<path class="st47" d="M81.3,869.2c0.1,0,0.2,0,0.2,0c0,0.1,0,0.2,0,0.2c-0.1,0-0.2,0-0.2,0C81.2,869.3,81.3,869.2,81.3,869.2z"
					/>
				<path class="st47" d="M81.8,869.8c0.1-0.1,0.2-0.1,0.2,0c0.1,0.1,0.1,0.2,0,0.2c-0.1,0.1-0.2,0.1-0.2,0
					C81.7,870,81.7,869.9,81.8,869.8z"/>
				<path class="st47" d="M82.4,870.4c0-0.1,0.1-0.1,0.2,0c0.1,0,0.1,0.1,0,0.2c0,0.1-0.1,0.1-0.2,0
					C82.3,870.5,82.3,870.5,82.4,870.4z"/>
				<path class="st47" d="M83.1,870.9c0-0.1,0.1-0.1,0.2-0.1c0.1,0,0.1,0.1,0.1,0.2c0,0.1-0.1,0.1-0.2,0.1
					C83.1,871.1,83.1,871,83.1,870.9z"/>
				<path class="st47" d="M83.9,871.2c0-0.1,0.1-0.1,0.2-0.1c0.1,0,0.1,0.1,0.1,0.2s-0.1,0.1-0.2,0.1
					C83.9,871.4,83.9,871.3,83.9,871.2z"/>
				<path class="st47" d="M84.8,871.4c0-0.1,0.1-0.1,0.2-0.1c0.1,0,0.1,0.1,0.1,0.2c0,0.1-0.1,0.1-0.2,0.1
					C84.8,871.6,84.7,871.5,84.8,871.4z"/>
				<path class="st47" d="M85.6,871.5c0-0.1,0.1-0.2,0.1-0.2c0.1,0,0.1,0.1,0.2,0.1c0,0.1-0.1,0.1-0.1,0.2
					C85.6,871.6,85.6,871.6,85.6,871.5z"/>
				<path class="st47" d="M86.4,871.4c0-0.1,0-0.2,0.1-0.2s0.2,0,0.2,0.1c0,0.1,0,0.2-0.1,0.2C86.5,871.5,86.5,871.5,86.4,871.4z"/>
				<path class="st47" d="M87.2,871.2c0-0.1,0-0.2,0.1-0.2s0.2,0,0.2,0.1s0,0.2-0.1,0.2C87.3,871.3,87.2,871.2,87.2,871.2z"/>
				<path class="st47" d="M88,870.8c0-0.1,0-0.2,0-0.2c0.1,0,0.2,0,0.2,0c0,0.1,0,0.2,0,0.2C88.2,870.9,88.1,870.9,88,870.8z"/>
				<path class="st47" d="M88.7,870.2c-0.1-0.1-0.1-0.2,0-0.2c0.1-0.1,0.1-0.1,0.2,0c0.1,0.1,0.1,0.2,0,0.2
					C88.8,870.3,88.7,870.3,88.7,870.2z"/>
				<path class="st47" d="M89.2,869.7c-0.1,0-0.1-0.1,0-0.2c0-0.1,0.1-0.1,0.2,0c0.1,0,0.1,0.1,0,0.2
					C89.4,869.7,89.3,869.7,89.2,869.7z"/>
				<path class="st47" d="M89.8,869c-0.1,0-0.1-0.1-0.1-0.2c0-0.1,0.1-0.1,0.2-0.1c0.1,0,0.1,0.1,0.1,0.2
					C89.9,869,89.8,869,89.8,869z"/>
				<path class="st47" d="M90.1,868.2c-0.1,0-0.1-0.1-0.1-0.2s0.1-0.1,0.2-0.1c0.1,0,0.1,0.1,0.1,0.2
					C90.2,868.1,90.1,868.2,90.1,868.2z"/>
				<path class="st47" d="M90.3,867.4c-0.1,0-0.1-0.1-0.1-0.2s0.1-0.1,0.2-0.1c0.1,0,0.1,0.1,0.1,0.2
					C90.4,867.3,90.3,867.4,90.3,867.4z"/>
				<path class="st47" d="M90.3,866.5c-0.1,0-0.1-0.1-0.2-0.1c0-0.1,0.1-0.1,0.1-0.2c0.1,0,0.1,0.1,0.2,0.1
					C90.4,866.4,90.4,866.5,90.3,866.5z"/>
				<path class="st47" d="M90.2,865.7c-0.1,0-0.2,0-0.2-0.1c0-0.1,0-0.2,0.1-0.2s0.2,0,0.2,0.1C90.3,865.6,90.3,865.7,90.2,865.7z"
					/>
				<path class="st47" d="M90,864.8c-0.1,0-0.2,0-0.2-0.1c0-0.1,0-0.2,0.1-0.2s0.2,0,0.2,0.1S90.1,864.8,90,864.8z"/>
				<path class="st47" d="M89.5,864.1c-0.1,0-0.2,0-0.2,0c0-0.1,0-0.2,0-0.2c0.1,0,0.2,0,0.2,0C89.6,864,89.6,864.1,89.5,864.1z"/>
				<path class="st47" d="M89.1,863.4c-0.1,0.1-0.2,0.1-0.2,0c-0.1-0.1-0.1-0.2,0-0.2c0.1-0.1,0.2-0.1,0.2,0
					C89.1,863.2,89.1,863.3,89.1,863.4z"/>
				<path class="st47" d="M88.5,862.8c0,0.1-0.1,0.1-0.2,0c-0.1,0-0.1-0.1,0-0.2c0-0.1,0.1-0.1,0.2,0
					C88.5,862.7,88.5,862.8,88.5,862.8z"/>
				<path class="st47" d="M87.7,862.4c0,0.1-0.1,0.1-0.2,0.1c-0.1,0-0.1-0.1-0.1-0.2s0.1-0.1,0.2-0.1
					C87.7,862.2,87.7,862.3,87.7,862.4z"/>
				<path class="st47" d="M87,862.1c0,0.1-0.1,0.1-0.2,0.1c-0.1,0-0.1-0.1-0.1-0.2s0.1-0.1,0.2-0.1C87,861.8,87,862,87,862.1z"/>
				<path class="st47" d="M86.1,861.8c0,0.1-0.1,0.1-0.2,0.1c-0.1,0-0.1-0.1-0.1-0.2c0-0.1,0.1-0.1,0.2-0.1
					C86.1,861.6,86.1,861.7,86.1,861.8z"/>
				<path class="st47" d="M85.3,861.7c0,0.1-0.1,0.1-0.1,0.2c-0.1,0-0.1-0.1-0.2-0.1c0-0.1,0.1-0.1,0.1-0.2
					C85.2,861.6,85.3,861.7,85.3,861.7z"/>
			</g>
		</g>
		<path class="st47" d="M132.9,861c-1.9,0.5-3.9,0.1-5.5-1.2c-0.1-0.1-0.3,0.1-0.2,0.2c0,0.1,0.1,0.2,0.1,0.3
			c-1.1-0.7-2.1-1.7-3.1-2.7c-0.6-1.1-1.6-1.9-2.4-2.8c-0.2-0.2-0.4,0.1-0.3,0.2c0.7,0.8,1.5,1.7,2.2,2.5c0.8,1.3,1.3,2.8,0.3,4.1
			c-0.6,1-1.8,1.4-2.8,1c0.6-1,0.1-2.3-1.3-2.5c-0.1,0-0.2,0.1-0.2,0.1c-0.2,1,0.1,2,0.8,2.5c-0.1,0-0.1,0.1-0.2,0.1
			c-0.2,0.1,0,0.4,0.2,0.3c0.1-0.1,0.2-0.2,0.3-0.2c1,0.5,2,0.2,2.8-0.4c1.1-0.8,1.2-2.2,1-3.5c0-0.2-0.1-0.3-0.1-0.5
			c1,0.8,1.9,1.7,3,2.4c0.2,0.1,0.3-0.1,0.2-0.2c0-0.1-0.1-0.2-0.1-0.3c1.6,1,3.4,1.3,5.2,0.8C133.2,861.3,133.1,861,132.9,861z
			 M120.7,862.5c-0.4-0.4-0.5-1-0.5-1.5c0.1,0,0.3,0,0.4-0.1c0.3,0.2,0.5,0.5,0.6,0.8c0.1,0.3,0,0.7-0.2,1
			C120.9,862.6,120.8,862.5,120.7,862.5z"/>
		<path class="st47" d="M141.2,858c-3.5,1.7-6.9-0.3-9.5-2.8c-0.4-0.5-1-1.1-1.5-1.5c-0.2-0.1-0.4,0.1-0.3,0.2c0.4,0.5,1,1,1.5,1.5
			c0.4,0.4,0.7,1,1.1,1.5c0.4,0.6,0.7,1.3,0.8,1.9c0.1,0.8-0.6,1-1.2,0.8c0.2-0.3,0.3-0.7,0-1.3c-0.5-0.8-2.1,0.2-1.4,1
			c0.1,0.1,0.3,0.2,0.4,0.3c-0.1,0.1-0.3,0.1-0.6-0.2c-0.2-0.1-0.4,0.2-0.2,0.3c0.4,0.3,1,0.3,1.4,0.1c0.8,0.2,1.8-0.1,1.9-1.2
			c0.1-0.7-0.5-1.6-1-2.2c2.5,2,5.5,3.3,8.7,1.7C141.6,858.2,141.4,857.9,141.2,858z"/>
	</g>
	<g>
		<path class="st49" d="M207.1,845.1l-0.3,1.5c-0.4,2-2.4,3.2-4.5,2.8l-5-1.2c-2-0.4-3.2-2.4-2.8-4.5l0.3-1.5c0.4-2,2.4-3.2,4.5-2.8
			l5,1.2C206.3,841.2,207.6,843.2,207.1,845.1z"/>
		<path class="st50" d="M127.7,825.6L127.7,825.6l-2.3,1.1l7.2,1c0.4-0.3,1.1-0.4,1.6-0.2c1,0.2,1.7,1.1,1.5,1.7
			c-0.2,0.7-1.2,1.2-2.1,0.8c-0.6-0.1-1.1-0.4-1.3-0.8l-7-2.3l1.7,1.9c2.3,0.5,6.5,3.9,6.5,3.9l7.1-0.7l0.3-1.6l0.3-1.6l-6-3.8
			C135.3,824.9,130.1,826.1,127.7,825.6z"/>
		
			<rect x="167" y="807.1" transform="matrix(0.229 -0.9734 0.9734 0.229 -682.9765 812.6584)" class="st49" width="9" height="60.7"/>
		
			<rect x="170.1" y="804.8" transform="matrix(0.2291 -0.9734 0.9734 0.2291 -680.2501 811.3414)" class="st51" width="3.9" height="60.7"/>
		
			<rect x="136.4" y="829.2" transform="matrix(0.2289 -0.9734 0.9734 0.2289 -699.72 777.4285)" class="st52" width="8.9" height="2.3"/>
		<polygon class="st50" points="178,833.8 175.7,843.7 174.8,843.5 177.2,833.6 		"/>
		
			<rect x="196.1" y="844.1" transform="matrix(0.2292 -0.9734 0.9734 0.2292 -666.9993 846.7641)" class="st50" width="10.1" height="1"/>
		<path class="st50" d="M207.8,842.2l-1.7,7.3c-0.1,0.6-0.8,1.1-1.5,1l-0.5-0.1c-0.6-0.1-1.1-0.8-1-1.5l1.7-7.3
			c0.1-0.6,0.8-1.1,1.5-1l0.5,0.1C207.5,840.8,207.9,841.6,207.8,842.2z"/>
		<path class="st50" d="M206.1,843l-0.1,0.2c-0.1,0.3-0.4,0.5-0.7,0.4l-20.3-4.8c-0.3-0.1-0.5-0.4-0.4-0.7l0.1-0.2
			c0.1-0.3,0.4-0.5,0.7-0.4l20.3,4.8C205.9,842.3,206.1,842.6,206.1,843z"/>
	</g>
</g>
<g>
	<text transform="matrix(1 0 0 1 69.9639 680)" class="st14 st22 st26">PRESENT THE PROJECT</text>
	<text transform="matrix(1 0 0 1 129.3691 693.791)" class="st14 st22 st26"> </text>
	<g>
		<g>
			<path class="st43" d="M141.1,646.1c-10.5,3.6-21.4-8.1-31.4-1.5c-1.3,0.8-4.6,4.3-6,0.6c-0.5-1.4-0.7-2.9-1.1-4.2
				c-0.4-1.5-0.7-3.1-1.2-4.6c0.7-7.3-3.6-15.3-5.6-22.2c-0.2-0.6-0.3-1.4-0.5-2c-0.2-0.7-1.4-0.4-1.3,0.3c0.2,0.8,0.4,1.7,0.6,2.4
				c1.6,6.5,3.3,12.9,4.9,19.4c0.1,0.4,0.2,1,0.3,1.4c-0.2,3.9-2,7.7-5.6,9.8c-2.5,1.5-6,1.7-8.7,0.5c-1.2-5.5-2-11-2.4-16.5
				c1.3-5.4,1.5-10.9,0-16.5c-0.2-0.7-1.3-0.5-1.3,0.2c-0.4,5.4-0.3,10.9,0,16.3c-1.5,6.5-4.5,12.6-7.5,18.6
				c-0.3,0.7,0.7,1.3,1.2,0.6c2.7-5,5.1-10.1,6.8-15.5c0.4,4,1.1,8.1,1.9,12c-0.4-0.3-0.7-0.6-1.1-1.1c-0.4-0.5-1.2-0.3-1.2,0.3
				c-0.2,2.1,1.2,3.5,3.4,3.6c0.3,0,0.5-0.2,0.6-0.4c4.7,1.7,10.6-0.7,13.4-4.9c0.7-1.1,1.3-2.2,1.6-3.4c0.4,1.8,1,3.6,1.4,5.5
				c0.3,1.3,1.2,3.6,3.1,3.5c2.4-0.1,3.9-1.8,5.8-3.1c3.3-2.1,8-1.3,11.5-0.4c6.3,1.6,12.3,4.9,18.9,2.5
				C142.2,647,141.8,645.8,141.1,646.1z"/>
			<path class="st43" d="M186.7,641.1c-2.2,2.9-5.6,4.3-9.4,4.5c-3.7,0.1-5.6-2.2-8.7-3.4c-4.5-1.7-7.3,1.6-9.2,5
				c-2.5-5.2-4.7-10.6-6.2-16.2c-0.5-7.3-1.8-14.5-3.6-21.7c-0.2-0.6-1.3-0.5-1.3,0.2c0.3,7.6,1.7,15.2,3.8,22.5
				c0.6,5.4,1,12.4-4.3,13.9c-0.8,0.2-0.4,1.4,0.3,1.2c5.1-1.4,5.5-6.4,5.3-10.7c1.5,4.3,3.2,8.6,5.3,12.6c0.2,0.4,1,0.4,1.2,0
				c1.7-3.5,4.3-7.6,9-5.2c2.2,1.2,4,2.7,6.7,2.9c4.8,0.5,9.4-1.2,12.3-4.9C188.3,641.1,187.1,640.4,186.7,641.1z"/>
		</g>
		<line class="st53" x1="50.6" y1="649.2" x2="209.6" y2="649.2"/>
	</g>
</g>
<g>
	<g>
		<polygon class="st35" points="415.4,958.4 409,962.2 410.6,963.3 388.4,995.5 363.9,986.2 331.3,1017.5 317.2,1007.6 
			278.3,1032.4 258.1,1022.1 219.9,1054.8 221.8,1057 258.5,1025.5 278.5,1035.8 317.1,1010.9 331.5,1021.2 364.6,989.5 389.5,999 
			412.8,965 414.4,966.2 		"/>
		<g>
			<g>
				
					<rect x="269" y="1026.9" transform="matrix(0.9633 -0.2683 0.2683 0.9633 -268.8503 111.9814)" class="st54" width="12.5" height="25.6"/>
				<path class="st55" d="M280,1049.7c-0.3-1,0.4-2.1,1.6-2.4c0.2-0.1,0.4-0.1,0.6-0.1l-4.9-17.5c-0.2,0.1-0.3,0.2-0.5,0.2
					c-1.2,0.3-2.3-0.2-2.7-1.3c0-0.1,0-0.1,0-0.2l-3.6,1.1c0,0.1,0,0.1,0.1,0.2c0.3,1-0.4,2.1-1.6,2.4c-0.2,0.1-0.4,0.1-0.6,0.1
					l4.9,17.5c0.2-0.1,0.3-0.2,0.5-0.2c1.2-0.3,2.3,0.2,2.7,1.3c0,0.1,0,0.1,0,0.2l3.6-1.1C280.1,1049.8,280,1049.7,280,1049.7z"/>
				<g>
					<path class="st54" d="M276.6,1043c-1.9,0.5-3.8-0.5-4.3-2.4c-0.5-1.9,0.5-3.8,2.4-4.3c1.9-0.5,3.8,0.5,4.3,2.4
						C279.6,1040.4,278.4,1042.5,276.6,1043z"/>
					<g>
						<text transform="matrix(0.2683 0.9633 -0.9633 0.2683 272.9866 1038.3052)" class="st56 st57 st58">$</text>
					</g>
				</g>
				<g>
					<g>
						<path class="st54" d="M273.9,1034.3c-1,0.2-1.8-0.3-2.1-1.2c-0.2-1,0.3-1.8,1.2-2.1c1-0.2,1.8,0.3,2.1,1.2
							C275.2,1033.1,274.7,1034.1,273.9,1034.3z"/>
						<path class="st54" d="M277.7,1048.3c-1,0.2-1.8-0.3-2.1-1.2c-0.2-1,0.3-1.8,1.2-2.1c1-0.2,1.8,0.3,2.1,1.2
							C279.2,1047,278.6,1048,277.7,1048.3z"/>
					</g>
				</g>
			</g>
			<g>
				
					<rect x="288.9" y="1039.5" transform="matrix(0.9961 -8.833877e-02 8.833877e-02 0.9961 -91.2019 30.7389)" class="st54" width="25.6" height="12.5"/>
				<path class="st55" d="M290.9,1048.6c1.1-0.1,2,0.8,2.1,2c0,0.2,0,0.4,0,0.6l18.1-1.6c-0.1-0.2-0.1-0.4-0.1-0.6
					c-0.1-1.2,0.6-2.2,1.7-2.3c0.1,0,0.1,0,0.2,0l-0.3-3.7c-0.1,0-0.1,0-0.2,0c-1.1,0.1-2-0.8-2.1-2c0-0.2,0-0.4,0-0.6l-18.1,1.6
					c0.1,0.2,0.1,0.4,0.1,0.6c0.1,1.2-0.6,2.2-1.7,2.3c-0.1,0-0.1,0-0.2,0l0.3,3.7C290.8,1048.6,290.8,1048.6,290.9,1048.6z"/>
				<g>
					<path class="st54" d="M298.2,1046.5c-0.2-1.9,1.3-3.6,3.2-3.8c1.9-0.2,3.6,1.3,3.8,3.2c0.2,1.9-1.3,3.6-3.2,3.8
						C300.1,1049.8,298.4,1048.4,298.2,1046.5z"/>
					<g>
						<text transform="matrix(-0.9961 8.832923e-02 -8.832923e-02 -0.9961 303.3292 1043.7405)" class="st56 st57 st59">$</text>
					</g>
				</g>
				<g>
					<g>
						<path class="st54" d="M307.2,1045.3c-0.1-1,0.6-1.8,1.6-1.8c1-0.1,1.8,0.6,1.8,1.6c0.1,1-0.6,1.8-1.6,1.8
							C308.1,1046.9,307.3,1046.3,307.2,1045.3z"/>
						<path class="st54" d="M292.7,1046.6c-0.1-1,0.6-1.8,1.6-1.8c1-0.1,1.8,0.6,1.8,1.6c0.1,1-0.6,1.8-1.6,1.8
							C293.6,1048.2,292.8,1047.5,292.7,1046.6z"/>
					</g>
				</g>
			</g>
			<g>
				
					<rect x="274.7" y="1049.8" transform="matrix(0.9961 -8.826093e-02 8.826093e-02 0.9961 -92.0877 29.4939)" class="st54" width="25.6" height="12.5"/>
				<path class="st55" d="M276.7,1058.9c1.1-0.1,2,0.8,2.1,2c0,0.2,0,0.4,0,0.6l18.1-1.6c-0.1-0.2-0.1-0.4-0.1-0.6
					c-0.1-1.2,0.6-2.2,1.7-2.3c0.1,0,0.1,0,0.2,0l-0.3-3.7c-0.1,0-0.1,0-0.2,0c-1.1,0.1-2-0.8-2.1-2c0-0.2,0-0.4,0-0.6l-18.1,1.6
					c0.1,0.2,0.1,0.4,0.1,0.6c0.1,1.2-0.6,2.2-1.7,2.3c-0.1,0-0.1,0-0.2,0l0.3,3.7C276.6,1059,276.7,1058.9,276.7,1058.9z"/>
				<g>
					<path class="st54" d="M284,1056.8c-0.2-1.9,1.3-3.6,3.2-3.8c1.9-0.2,3.6,1.3,3.8,3.2s-1.3,3.6-3.2,3.8
						C285.8,1060.1,284.2,1058.7,284,1056.8z"/>
					<g>
						<text transform="matrix(-0.9961 8.832923e-02 -8.832923e-02 -0.9961 289.1666 1054.0356)" class="st56 st57 st59">$</text>
					</g>
				</g>
				<g>
					<g>
						<path class="st54" d="M293.1,1055.6c-0.1-1,0.6-1.8,1.6-1.8c1-0.1,1.8,0.6,1.8,1.6c0.1,1-0.6,1.8-1.6,1.8
							C293.9,1057.2,293.1,1056.6,293.1,1055.6z"/>
						<path class="st54" d="M278.5,1056.9c-0.1-1,0.6-1.8,1.6-1.8c1-0.1,1.8,0.6,1.8,1.6c0.1,1-0.6,1.8-1.6,1.8
							C279.5,1058.5,278.6,1057.8,278.5,1056.9z"/>
					</g>
				</g>
			</g>
			<g>
				
					<rect x="276.5" y="1032" transform="matrix(0.2892 -0.9573 0.9573 0.2892 -788.273 1014.9128)" class="st54" width="25.6" height="12.5"/>
				<path class="st55" d="M287.9,1049.3c0.3-1,1.5-1.5,2.7-1.2c0.2,0.1,0.4,0.1,0.5,0.2l5.3-17.4c-0.2,0-0.4,0-0.6-0.1
					c-1.2-0.3-1.8-1.5-1.6-2.4c0-0.1,0-0.1,0.1-0.2l-3.6-1.1c0,0.1,0,0.1,0,0.2c-0.3,1-1.5,1.5-2.7,1.2c-0.2-0.1-0.4-0.1-0.5-0.2
					l-5.3,17.4c0.2,0,0.4,0,0.6,0.1c1.2,0.3,1.8,1.5,1.6,2.4c0,0.1,0,0.1-0.1,0.2l3.6,1.1C287.9,1049.5,287.9,1049.3,287.9,1049.3z"
					/>
				<g>
					<path class="st54" d="M288.6,1041.8c-1.9-0.5-2.9-2.5-2.3-4.3c0.5-1.9,2.5-2.9,4.3-2.3c1.9,0.5,2.9,2.5,2.3,4.3
						C292.4,1041.3,290.4,1042.3,288.6,1041.8z"/>
					<g>
						<text transform="matrix(-0.2892 0.9573 -0.9573 -0.2892 288.0201 1035.9987)" class="st56 st57 st60">$</text>
					</g>
				</g>
				<g>
					<g>
						<path class="st54" d="M290.8,1033c-0.8-0.3-1.4-1.3-1.2-2.1c0.3-0.8,1.2-1.4,2.1-1.2c0.8,0.3,1.4,1.3,1.2,2.1
							C292.7,1032.8,291.8,1033.3,290.8,1033z"/>
						<path class="st54" d="M286.7,1046.9c-0.8-0.3-1.4-1.2-1.2-2.1c0.3-0.8,1.3-1.4,2.1-1.2c0.8,0.3,1.4,1.2,1.2,2.1
							C288.5,1046.7,287.5,1047.1,286.7,1046.9z"/>
					</g>
				</g>
			</g>
			<g>
				
					<rect x="258.6" y="1038.8" transform="matrix(0.7307 -0.6827 0.6827 0.7307 -646.5953 463.9986)" class="st54" width="12.5" height="25.6"/>
				<path class="st55" d="M255.9,1044.9c0.7,0.7,0.5,2-0.3,2.9c-0.1,0.1-0.3,0.2-0.5,0.3l12.4,13.3c0.1-0.2,0.2-0.3,0.4-0.4
					c0.8-0.8,2.1-0.8,2.9-0.1l0.1,0.1l2.8-2.5l-0.1-0.1c-0.7-0.7-0.5-2,0.3-2.9c0.1-0.1,0.3-0.2,0.5-0.3l-12.4-13.3
					c-0.1,0.2-0.2,0.3-0.4,0.4c-0.8,0.8-2.1,0.8-2.9,0.1l-0.1-0.1l-2.8,2.5C255.9,1044.8,255.9,1044.8,255.9,1044.9z"/>
				<g>
					<path class="st54" d="M262.2,1049.2c1.4-1.4,3.6-1.3,5,0.2c1.4,1.4,1.3,3.6-0.2,5c-1.4,1.4-3.6,1.3-5-0.2
						C260.7,1052.7,260.7,1050.5,262.2,1049.2z"/>
					<g>
						<text transform="matrix(-0.6827 -0.7307 0.7307 -0.6827 267.4721 1051.6595)" class="st56 st57 st61">$</text>
					</g>
				</g>
				<g>
					<g>
						<path class="st54" d="M268.6,1055.6c0.6-0.6,1.8-0.6,2.4,0.1c0.6,0.6,0.6,1.8-0.1,2.4c-0.6,0.6-1.8,0.6-2.4-0.1
							C267.9,1057.3,267.9,1056.2,268.6,1055.6z"/>
						<path class="st54" d="M258.7,1045c0.6-0.6,1.8-0.6,2.4,0.1c0.6,0.6,0.6,1.8-0.1,2.4c-0.6,0.6-1.8,0.6-2.4-0.1
							C257.9,1046.7,258.1,1045.6,258.7,1045z"/>
					</g>
				</g>
			</g>
		</g>
		<g>
			<g>
				
					<rect x="336.7" y="1035.9" transform="matrix(0.4795 -0.8775 0.8775 0.4795 -732.5624 849.1266)" class="st54" width="25.6" height="12.5"/>
				<path class="st55" d="M342.7,1050.7c0.5-1,0-2.1-1-2.7c-0.2-0.1-0.4-0.2-0.5-0.2l8.7-16c0.1,0.1,0.3,0.2,0.5,0.3
					c1.1,0.5,2.3,0.3,2.9-0.6l0.1-0.1l3.3,1.8l-0.1,0.1c-0.5,1,0,2.1,1,2.7c0.2,0.1,0.4,0.2,0.5,0.2l-8.7,16
					c-0.1-0.1-0.3-0.2-0.5-0.3c-1.1-0.5-2.3-0.3-2.9,0.6c0,0,0,0.1-0.1,0.2l-3.3-1.8C342.6,1050.8,342.6,1050.8,342.7,1050.7z"/>
				<g>
					<path class="st54" d="M347.6,1045c1.7,1,3.8,0.3,4.8-1.4c1-1.7,0.3-3.8-1.4-4.8c-1.7-1-3.8-0.3-4.8,1.4S345.9,1044,347.6,1045z
						"/>
					<g>
						<text transform="matrix(-0.4795 0.8775 0.8775 0.4795 352.1711 1041.3859)" class="st56 st57 st62">$</text>
					</g>
				</g>
				<g>
					<g>
						<path class="st54" d="M352.1,1037.3c0.8,0.4,1.9,0.1,2.3-0.6c0.4-0.8,0.1-1.9-0.6-2.3c-0.8-0.4-1.9-0.1-2.3,0.6
							C351.1,1035.8,351.4,1036.7,352.1,1037.3z"/>
						<path class="st54" d="M345.3,1050c0.8,0.4,1.9,0.1,2.3-0.6c0.4-0.8,0.1-1.9-0.6-2.3c-0.8-0.4-1.9-0.1-2.3,0.6
							C344.1,1048.5,344.4,1049.5,345.3,1050z"/>
					</g>
				</g>
			</g>
			<g>
				
					<rect x="316.2" y="1029.4" transform="matrix(0.3117 -0.9502 0.9502 0.3117 -768.2859 1023.7351)" class="st54" width="12.5" height="25.6"/>
				<path class="st55" d="M332.3,1047.3c-1-0.3-2.1,0.3-2.4,1.5c-0.1,0.2-0.1,0.4-0.1,0.6l-17.3-5.6c0.1-0.2,0.2-0.3,0.2-0.5
					c0.4-1.2-0.1-2.3-1.2-2.7c-0.1,0-0.1,0-0.2,0l1.2-3.6c0.1,0,0.1,0,0.2,0.1c1,0.3,2.1-0.3,2.4-1.5c0.1-0.2,0.1-0.4,0.1-0.6
					l17.3,5.7c-0.1,0.2-0.2,0.3-0.2,0.5c-0.4,1.2,0.1,2.3,1.2,2.7c0.1,0,0.1,0,0.2,0l-1.2,3.6
					C332.4,1047.3,332.3,1047.3,332.3,1047.3z"/>
				<g>
					<path class="st54" d="M325.7,1043.5c0.6-1.8-0.4-3.8-2.2-4.5c-1.8-0.6-3.8,0.4-4.5,2.2c-0.6,1.8,0.4,3.8,2.2,4.5
						C323.1,1046.4,325.1,1045.4,325.7,1043.5z"/>
					<g>
						<text transform="matrix(0.9502 0.3117 0.3117 -0.9502 321.2052 1039.756)" class="st56 st57 st59">$</text>
					</g>
				</g>
				<g>
					<g>
						<path class="st54" d="M317.2,1040.4c0.3-0.8-0.2-1.8-1.1-2.1s-1.8,0.2-2.1,1.1c-0.3,0.8,0.2,1.8,1.1,2.1
							C316,1041.8,316.9,1041.3,317.2,1040.4z"/>
						<path class="st54" d="M331,1044.9c0.3-0.8-0.2-1.8-1.1-2.1s-1.8,0.2-2.1,1.1c-0.3,0.8,0.2,1.8,1.1,2.1
							C329.8,1046.3,330.7,1045.8,331,1044.9z"/>
					</g>
				</g>
			</g>
			<g>
				
					<rect x="327.7" y="1042.6" transform="matrix(0.3117 -0.9502 0.9502 0.3117 -772.9682 1043.7684)" class="st54" width="12.5" height="25.6"/>
				<path class="st55" d="M343.8,1060.6c-1-0.3-2.1,0.3-2.4,1.5c-0.1,0.2-0.1,0.4-0.1,0.6l-17.3-5.7c0.1-0.2,0.2-0.3,0.2-0.5
					c0.4-1.2-0.1-2.3-1.2-2.7c-0.1,0-0.1,0-0.2,0l1.2-3.6c0.1,0,0.1,0,0.2,0.1c1,0.3,2.1-0.3,2.4-1.5c0.1-0.2,0.1-0.4,0.1-0.6
					l17.3,5.6c-0.1,0.2-0.2,0.3-0.2,0.5c-0.4,1.2,0.1,2.3,1.2,2.7c0.1,0,0.1,0,0.2,0l-1.3,3.6H343.8z"/>
				<g>
					<path class="st54" d="M337.2,1056.8c0.6-1.8-0.4-3.8-2.2-4.5c-1.8-0.6-3.8,0.4-4.5,2.2c-0.6,1.8,0.4,3.8,2.2,4.5
						C334.6,1059.6,336.6,1058.7,337.2,1056.8z"/>
					<g>
						<text transform="matrix(0.9502 0.3117 0.3117 -0.9502 332.6691 1052.9895)" class="st56 st57 st59">$</text>
					</g>
				</g>
				<g>
					<g>
						<path class="st54" d="M328.7,1053.7c0.3-0.8-0.2-1.8-1.1-2.1s-1.8,0.2-2.1,1.1s0.2,1.8,1.1,2.1
							C327.4,1055.1,328.4,1054.5,328.7,1053.7z"/>
						<path class="st54" d="M342.5,1058.2c0.3-0.8-0.2-1.8-1.1-2.1c-0.8-0.3-1.8,0.2-2.1,1.1s0.2,1.8,1.1,2.1
							S342.2,1059.1,342.5,1058.2z"/>
					</g>
				</g>
			</g>
			<g>
				
					<rect x="330" y="1024.8" transform="matrix(0.9979 -6.488053e-02 6.488053e-02 0.9979 -66.6128 24.0004)" class="st54" width="12.5" height="25.6"/>
				<path class="st55" d="M335.1,1048.7c-0.1-1.1-1.1-1.8-2.3-1.7c-0.2,0-0.4,0.1-0.6,0.1l-1.2-18.1c0.2,0,0.4,0,0.6,0
					c1.2-0.1,2.1-1,2-2c0-0.1,0-0.1,0-0.2l3.7-0.2c0,0.1,0,0.1,0,0.2c0.1,1.1,1.1,1.8,2.3,1.7c0.2,0,0.4-0.1,0.6-0.1l1.2,18.1
					c-0.2,0-0.4,0-0.6,0c-1.2,0.1-2.1,1-2,2c0,0.1,0,0.1,0,0.2l-3.7,0.2C335.1,1048.8,335.1,1048.7,335.1,1048.7z"/>
				<g>
					<path class="st54" d="M336.1,1041.2c1.9-0.1,3.4-1.8,3.3-3.7c-0.1-1.9-1.8-3.4-3.7-3.3c-1.9,0.1-3.4,1.8-3.3,3.7
						C332.5,1039.9,334.2,1041.3,336.1,1041.2z"/>
					<g>
						<text transform="matrix(6.484968e-02 0.9979 0.9979 -6.484968e-02 338.0861 1035.7678)" class="st56 st57 st59">$</text>
					</g>
				</g>
				<g>
					<g>
						<path class="st54" d="M335.9,1032.2c1-0.1,1.7-0.8,1.6-1.8c-0.1-1-0.8-1.7-1.8-1.6c-1,0.1-1.7,0.8-1.6,1.8
							C334.1,1031.5,335,1032.2,335.9,1032.2z"/>
						<path class="st54" d="M336.9,1046.6c1-0.1,1.7-0.8,1.6-1.8c-0.1-1-0.8-1.7-1.8-1.6s-1.7,0.8-1.6,1.8
							C335.1,1046,335.9,1046.7,336.9,1046.6z"/>
					</g>
				</g>
			</g>
			<g>
				
					<rect x="344.3" y="1049.9" transform="matrix(0.8305 -0.557 0.557 0.8305 -527.7639 377.9018)" class="st54" width="25.6" height="12.5"/>
				<path class="st55" d="M367.2,1051.6c-0.8,0.5-1.1,1.9-0.3,2.9c0.1,0.2,0.2,0.3,0.4,0.4l-15.2,10.2c-0.1-0.2-0.1-0.4-0.3-0.5
					c-0.6-1-1.9-1.4-2.8-0.7l-0.1,0.1l-2.1-3.2l0.1-0.1c0.8-0.5,1.1-1.9,0.3-2.9c-0.1-0.2-0.2-0.3-0.4-0.4l15.2-10.2
					c0.1,0.2,0.2,0.4,0.3,0.5c0.6,1,1.9,1.4,2.8,0.7l0.1-0.1l2.1,3.2L367.2,1051.6z"/>
				<g>
					<path class="st54" d="M360.2,1054.4c-1.1-1.6-3.3-2-4.9-1s-2,3.3-1,4.9c1.1,1.6,3.3,2,4.9,1S361.3,1056,360.2,1054.4z"/>
					<g>
						<text transform="matrix(0.8305 -0.557 -0.557 -0.8305 354.5152 1055.5707)" class="st56 st57 st63">$</text>
					</g>
				</g>
				<g>
					<g>
						<path class="st54" d="M352.5,1059.2c-0.5-0.7-1.6-1-2.3-0.4s-1,1.6-0.4,2.3s1.6,1,2.3,0.4C352.8,1061,353,1060,352.5,1059.2z"
							/>
						<path class="st54" d="M364.5,1051.2c-0.5-0.7-1.6-1-2.3-0.4s-1,1.6-0.4,2.3c0.5,0.7,1.6,1,2.3,0.4S365,1051.9,364.5,1051.2z"
							/>
					</g>
				</g>
			</g>
		</g>
		<g>
			<g>
				<path class="st8" d="M314.6,987.9l-9.1-0.1l-0.1,12.2c0,1.4,4,2.5,9.1,2.5c5,0,9.1-1.1,9.1-2.4l0.1-12.2L314.6,987.9z"/>
				<g>
					<path class="st9" d="M312.3,994.5c0.7,0.2,1.5,0.3,2.3,0.3c0.7,0,1.6-0.1,2.3-0.2c3.4-1.1,10.4-11.2,10.4-11.1
						c0.7-2.2,1.2-4.8,1.2-7.4c0.1-10.5-6-19-13.6-19c-7.5,0-13.8,8.4-13.8,18.9c0,2.7,0.3,5.1,1.1,7.4
						C302.1,983.2,308.9,993.4,312.3,994.5z"/>
					<g>
						<path class="st9" d="M302.2,974.6c0.3,1.9,0,3.5-0.8,3.7c-0.8,0.2-1.8-1.2-2.1-3.1c-0.3-1.9,0-3.5,0.8-3.7
							C300.9,971.4,301.9,972.7,302.2,974.6z"/>
						<path class="st9" d="M327.2,974.8c-0.4,1.9,0,3.5,0.8,3.7c0.8,0.2,1.8-1.2,2.1-3c0.4-1.9,0-3.5-0.8-3.7
							C328.5,971.5,327.5,972.9,327.2,974.8z"/>
					</g>
					<path class="st10" d="M314.8,955.7c-8.1-0.1-14.5,6.8-14.6,15.3c0,0.2,0,0.3,0,0.5c0.1,0,1,0.2,1.1,2.4c0,1.3,0,1.7,0,1.8
						l1.2,0.7c0,0,0.2-8.4,6-8.6h6.3h6.3c5.8,0.3,5.9,8.6,5.9,8.6l1.2-0.7c0-0.1,0-0.5,0-1.8c0.1-2.2,1-2.4,1.1-2.4
						c0-0.2,0-0.3,0-0.5C329.3,962.7,322.9,955.8,314.8,955.7z"/>
					<path class="st10" d="M303.8,966.5c0,0,12,8.1,22.7,4c0,0,0.5-5.8-5.1-6.7C315.9,963,303.8,966.5,303.8,966.5z"/>
				</g>
				<polygon class="st11" points="303.7,994.7 303.5,1023.7 325.3,1023.8 325.5,994.8 314.5,999.1 				"/>
				<polygon class="st12" points="314.5,1000 311.2,1017.8 314.4,1024.3 317.7,1017.8 				"/>
				<polygon class="st12" points="314.5,999.1 310.4,1000.9 314.5,1005.2 318.3,1000.9 				"/>
				<polygon class="st13" points="314.5,999.1 303.7,994.7 300.1,997.2 304.5,1005.8 				"/>
				<polygon class="st13" points="314.5,999.1 325.5,994.8 329,997.4 324.5,1005.4 				"/>
			</g>
			<path class="st14" d="M293.1,1060.9l42,0.3l2.8-34.4v1.6l2.4-29.2c-0.4-0.1-0.6-0.2-0.8-0.2l0,0l-10.5-1.6l-14.6,10.4l-14.4-10.6
				l-10.1,1.4L293.1,1060.9z"/>
			<path class="st9" d="M280.9,945.9c0,5.3-2.3,9.5-5.2,9.5c-2.9,0-5.2-4.3-5.1-9.5c0-5.3,2.3-9.5,5.2-9.5
				C278.5,936.4,280.9,940.6,280.9,945.9z"/>
			<path class="st9" d="M360.5,946.5c0,5.3-2.4,9.5-5.5,9.5c-3,0-5.4-4.3-5.3-9.5c0-5.3,2.4-9.5,5.5-9.5
				C358.2,936.9,360.6,941.3,360.5,946.5z"/>
			<g>
				<polygon class="st14" points="330.9,998.4 345.4,979.7 349.8,948 360.5,948.1 355.3,984.3 338.9,1016.9 				"/>
				<polygon class="st14" points="299.4,998.2 285.2,979.2 281.2,947.6 270.5,947.5 275.1,983.8 290.8,1016.6 				"/>
			</g>
		</g>
	</g>
	<g>
		<g>
			<polygon class="st15" points="262.3,1101.3 262.3,1061 237.5,1061 249,1081.2 237.5,1101.3 			"/>
			<polygon class="st15" points="391.5,1061 366.7,1061 366.7,1101.3 391.5,1101.3 379.9,1081.2 			"/>
		</g>
		<rect x="252.1" y="1055.4" class="st16" width="124.6" height="40.4"/>
		<polygon class="st17" points="252.1,1095.7 262.3,1101.3 262.3,1095.7 		"/>
		<polygon class="st17" points="376.8,1095.7 366.7,1101.3 366.7,1095.7 		"/>
		<text transform="matrix(1 0 0 1 271.313 1081.1572)" class="st18 st19 st64 st65">F I N I S H</text>
	</g>
</g>
<polygon class="st66" points="346.7,287 346.7,286.4 246.3,286.4 246.3,284.4 242.4,286.6 246.3,288.8 246.3,287 "/>
<polygon class="st66" points="190.3,119 194.1,116.8 190.3,114.6 190.3,116.4 152.2,116.4 152.2,117.1 190.3,117.1 "/>
<polygon class="st66" points="334.7,119 338.6,116.8 334.7,114.6 334.7,116.4 289.4,116.4 289.4,117.1 334.7,117.1 "/>
<polygon class="st66" points="458.1,287.6 501.3,287.6 501.3,234.3 500.5,234.3 500.5,287 458.1,287 458.1,284.9 454.3,287 
	458.1,289.2 "/>
<polygon class="st66" points="134.6,451.7 138.4,449.5 134.6,447.3 134.6,449.5 92.2,449.5 92.2,396.7 91.4,396.7 91.4,450.1 
	134.6,450.1 "/>
<polygon class="st66" points="249.7,449.7 322.4,449.7 322.4,451.8 326.3,449.5 322.4,447.3 322.4,449.1 249.7,449.1 "/>
<polygon class="st66" points="255.1,653.1 376.8,653.1 376.8,652.5 255.1,652.5 255.1,650.6 251.2,652.8 255.1,655 "/>
<polygon class="st66" points="372.9,827 251.2,827 251.2,827.6 372.9,827.6 372.9,829.5 376.8,827.3 372.9,825 "/>
<polygon class="st66" points="465.3,518.8 464.6,518.8 464.6,558.5 462.7,558.5 464.9,562.3 467.2,558.5 465.3,558.5 "/>
<polygon class="st66" points="130.4,717.4 129.8,717.4 129.8,757.1 127.9,757.1 130.1,760.9 132.3,757.1 130.4,757.1 "/>
<polygon class="st66" points="546.1,828.6 545.9,1017.7 469.1,1017.7 469.1,1015.6 465.3,1017.7 469.1,1020 469.1,1018.4 
	546.6,1018.5 546.6,827.9 519.8,827.9 520.3,828.6 "/>
</svg>
