<svg xmlns="http://www.w3.org/2000/svg" viewBox="0 0 188 38"><style type="text/css">  
	.st0{fill:#FFFFFF;}
	.st1{fill:#EEE848;}
</style><path class="st0" d="M28.8 10.3v12.3c0 2.1-0.7 3.7-2.1 4.8s-3.2 1.7-5.4 1.7c-2.2 0-4-0.6-5.4-1.7s-2-2.7-2-4.8V10.3h3.7v12.3c0 1.2 0.3 2.1 1 2.7 0.7 0.6 1.5 0.9 2.7 0.9 1.2 0 2.1-0.3 2.7-0.9s1-1.5 1-2.7V10.3H28.8z"/><path class="st0" d="M47 28.8h-3.7l-7.5-12.6 -0.1 0v12.6H32V10.3h3.7L43.2 23l0.1 0V10.3H47V28.8z"/><path class="st0" d="M54.4 28.8h-3.7V10.3h3.7V28.8z"/><path class="st0" d="M72.9 21.3c0 1.1-0.2 2.2-0.5 3.1s-0.9 1.8-1.6 2.5l3.1 3 -2.4 2 -3.3-3.2c-0.5 0.2-0.9 0.3-1.4 0.4 -0.5 0.1-1 0.1-1.5 0.1 -2.3 0-4.1-0.7-5.5-2.2s-2.1-3.4-2.1-5.6v-3.3c0-2.3 0.7-4.1 2.1-5.6s3.3-2.2 5.5-2.2c2.3 0 4.2 0.7 5.6 2.2 1.4 1.5 2.2 3.4 2.2 5.6V21.3zM69.2 17.9c0-1.4-0.4-2.6-1.1-3.5s-1.7-1.4-3-1.4 -2.2 0.5-2.9 1.4c-0.7 0.9-1 2.1-1 3.6v3.4c0 1.5 0.4 2.7 1.1 3.6 0.7 0.9 1.7 1.4 2.9 1.4 1.3 0 2.3-0.5 3-1.4 0.7-0.9 1.1-2.1 1.1-3.6V17.9z"/><path class="st0" d="M90.9 10.3v12.3c0 2.1-0.7 3.7-2.1 4.8s-3.2 1.7-5.4 1.7c-2.2 0-4-0.6-5.4-1.7s-2-2.7-2-4.8V10.3h3.7v12.3c0 1.2 0.3 2.1 1 2.7 0.7 0.6 1.5 0.9 2.7 0.9 1.2 0 2.1-0.3 2.7-0.9s1-1.5 1-2.7V10.3H90.9z"/><path class="st0" d="M105.5 20.7h-7.7V26h9v2.9H94.1V10.3h12.6v2.9h-8.9v4.6h7.7V20.7z"/><path d="M139.5 13.2h-5.2v15.6h-3.7V13.2h-5.2v-2.9h14.1V13.2z"/><path d="M152.9 20.7h-7.7V26h9v2.9h-12.7V10.3h12.6v2.9h-8.9v4.6h7.7V20.7z"/><path d="M170.4 22.5L170.4 22.5c0.1 2.1-0.5 3.6-1.8 4.8 -1.2 1.2-3 1.8-5.2 1.8 -2.2 0-4-0.7-5.4-2.1 -1.4-1.4-2.1-3.3-2.1-5.5v-3.7c0-2.2 0.7-4.1 2-5.5s3.1-2.2 5.3-2.2c2.3 0 4.1 0.6 5.4 1.8s1.9 2.8 1.9 4.8l0 0.1h-3.6c0-1.2-0.3-2.2-0.9-2.8s-1.5-1-2.7-1c-1.1 0-2 0.5-2.6 1.4 -0.7 0.9-1 2-1 3.4v3.7c0 1.4 0.3 2.6 1 3.5s1.6 1.4 2.8 1.4c1.2 0 2-0.3 2.6-0.9 0.6-0.6 0.8-1.5 0.8-2.8H170.4z"/><path d="M188.1 28.8h-3.7v-7.7h-7.5v7.7h-3.7V10.3h3.7v7.9h7.5v-7.9h3.7V28.8z"/><path class="st1" d="M117.3 2.5v33H2.5v-33H117.3M119.8 0H0v38h119.8V0L119.8 0z"/></svg>