<svg xmlns="http://www.w3.org/2000/svg" viewBox="0 0 393 50"><style type="text/css"> .st0{fill:#4D4843;} .st1{fill:#383738;} </style><path class="st0" d="M392.2 44.8c0.3 0 0.5-0.1 0.6-0.4 0.1-0.2 0.1-0.5-0.1-0.7l-16.5-21c-0.4-0.5-1.1-0.8-1.7-0.8 -0.7 0-1.3 0.3-1.7 0.9l-6.2 8.6 24.7 12.4 -26.6-9.8 -4.6 6.3c-0.4 0.6-0.5 1.3-0.2 2 0.3 0.6 0.9 1.1 1.6 1.1L392.2 44.8z"/><path class="st0" d="M368.3 25.6c0-0.1-2.5-0.8-4.5-1.3 -0.5-0.1-1 0-1.4 0.3 -0.4 0.3-0.6 0.8-0.5 1.3l0.9 6.7 0 0.3L368.3 25.6z"/><path class="st1" d="M1.2 50l-1-1.7c0 0 2.5-1.4 7-3.7l0.9 1.8C3.6 48.6 1.2 50 1.2 50L1.2 50M11.7 44.5l-0.9-1.8c2.1-1 4.5-2.2 7.2-3.4l0.8 1.8C16.4 42.3 14 43.4 11.7 44.5M22.5 39.5l-0.8-1.8c2.3-1 4.7-2 7.3-3.1l0.8 1.8C27.4 37.5 24.9 38.5 22.5 39.5M33.5 34.9l-0.8-1.9c2.4-0.9 4.9-1.9 7.5-2.9l0.7 1.9C38.5 33 36 34 33.5 34.9M44.7 30.6L44 28.8c2.4-0.9 4.9-1.8 7.5-2.7l0.7 1.9C49.7 28.8 47.1 29.7 44.7 30.6M55.9 26.7l-0.6-1.9c2.5-0.8 5-1.7 7.6-2.5l0.6 1.9C61 25 58.4 25.8 55.9 26.7M67.3 23l-0.6-1.9c2.5-0.8 5-1.5 7.7-2.3l0.6 1.9C72.4 21.5 69.8 22.2 67.3 23M78.8 19.7l-0.5-1.9c2.5-0.7 5.1-1.4 7.7-2.1l0.5 1.9C83.9 18.3 81.3 19 78.8 19.7M90.3 16.6l-0.5-1.9c2.5-0.6 5.1-1.3 7.8-1.9l0.4 1.9C95.5 15.3 92.9 15.9 90.3 16.6M102 13.8l-0.4-1.9c2.6-0.6 5.2-1.1 7.8-1.7l0.4 2C107.2 12.7 104.5 13.2 102 13.8M113.6 11.4l-0.4-2c2.6-0.5 5.2-1 7.9-1.5l0.4 2C118.8 10.3 116.2 10.8 113.6 11.4M125.4 9.2l-0.3-2c2.6-0.5 5.2-0.9 7.9-1.3l0.3 2C130.6 8.3 128 8.7 125.4 9.2M137.2 7.3l-0.3-2c2.6-0.4 5.3-0.8 7.9-1.1l0.3 2C142.4 6.5 139.8 6.9 137.2 7.3M149.1 5.7l-0.3-2c2.6-0.3 5.3-0.6 7.9-0.9l0.2 2C154.3 5 151.7 5.3 149.1 5.7M160.9 4.3l-0.2-2c2.6-0.3 5.3-0.5 8-0.7l0.2 2C166.2 3.9 163.6 4.1 160.9 4.3M172.8 3.3l-0.2-2c2.6-0.2 5.3-0.4 8-0.5l0.1 2C178.1 3 175.4 3.1 172.8 3.3M184.8 2.6l-0.1-2c2.6-0.1 5.3-0.2 8-0.3l0.1 2C190 2.4 187.4 2.5 184.8 2.6M196.7 2.2l0-2c2.6-0.1 5.3-0.1 8-0.1l0 2C202 2.1 199.3 2.1 196.7 2.2M208.6 2V0c2.7 0 5.3 0 8 0.1l0 2C213.9 2 211.3 2 208.6 2M220.6 2.2l0.1-2c2.6 0.1 5.3 0.2 8 0.3l-0.1 2C225.9 2.3 223.2 2.2 220.6 2.2M232.5 2.6l0.1-2c2.6 0.1 5.3 0.3 8 0.5l-0.1 2C237.8 2.9 235.2 2.7 232.5 2.6M244.5 3.3l0.1-2c2.7 0.2 5.3 0.4 8 0.6l-0.2 2C249.8 3.8 247.1 3.5 244.5 3.3M256.4 4.4l0.2-2c2.6 0.3 5.3 0.5 8 0.8l-0.2 2C261.6 4.9 259 4.6 256.4 4.4M268.3 5.7l0.2-2c2.6 0.3 5.3 0.7 7.9 1l-0.3 2C273.5 6.3 270.9 6 268.3 5.7M280.1 7.3l0.3-2c2.6 0.4 5.3 0.8 7.9 1.2l-0.3 2C285.3 8.1 282.7 7.7 280.1 7.3M291.9 9.1l0.3-2c2.6 0.4 5.2 0.9 7.9 1.4l-0.4 2C297.1 10.1 294.5 9.6 291.9 9.1M303.7 11.3l0.4-2c2.6 0.5 5.2 1 7.8 1.6l-0.4 2C308.9 12.3 306.3 11.8 303.7 11.3M315.4 13.7l0.4-2c2.6 0.6 5.2 1.2 7.8 1.8l-0.5 1.9C320.5 14.9 317.9 14.3 315.4 13.7M327 16.5l0.5-2c2.6 0.6 5.2 1.3 7.8 2l-0.5 1.9C332.1 17.7 329.6 17.1 327 16.5M338.6 19.4l0.5-1.9c2.6 0.7 5.1 1.4 7.7 2.1l-0.5 1.9C343.7 20.8 341.1 20.1 338.6 19.4M350.1 22.7l0.6-1.9c2.5 0.8 5.1 1.5 7.7 2.3l-0.6 1.9C355.2 24.2 352.6 23.4 350.1 22.7"/></svg>